<svg width="100" height="79" viewBox="0 0 100 79" fill="none" xmlns="http://www.w3.org/2000/svg">
<g clip-path="url(#clip0_96_4)">
<mask id="mask0_96_4" style="mask-type:luminance" maskUnits="userSpaceOnUse" x="0" y="0" width="100" height="79">
<path d="M100 0H0V79H100V0Z" fill="white"/>
</mask>
<g mask="url(#mask0_96_4)">
<path d="M33.9538 8.84992C33.2801 8.9766 32.6436 9.25334 32.0916 9.65964C31.5395 10.0659 31.086 10.5914 30.7648 11.1969C30.4323 12 30.2438 12.8554 30.2078 13.7239V14.2509H28.4028C26.9348 14.1309 25.4611 14.4007 24.1308 15.0329C22.4139 15.9506 21.0921 17.4648 20.4148 19.2899L20.0538 20.1899L20.0088 41.5499C19.9788 55.0729 20.0238 63.2559 20.1138 63.8729C20.3818 65.3658 21.0819 66.7473 22.1275 67.8462C23.173 68.9451 24.518 69.713 25.9958 70.0549C27.0958 70.2659 72.8958 70.2659 73.9958 70.0549C75.4366 69.7349 76.7541 69.0052 77.7898 67.9536C78.8254 66.902 79.5349 65.5734 79.8328 64.1279C79.9528 63.5109 79.9978 56.4559 79.9978 42.0909C79.9978 18.7909 80.0428 19.9479 79.0648 18.1129C78.6944 17.4807 78.2499 16.8948 77.7408 16.3679C76.1308 14.7739 74.6408 14.2469 71.6338 14.2469H69.8138L69.7388 13.1469C69.7351 12.2966 69.4825 11.466 69.0121 10.7576C68.5417 10.0492 67.8741 9.49414 67.0918 9.1609C66.3189 8.80729 65.4571 8.69561 64.6196 8.84052C63.7821 8.98543 63.0079 9.38017 62.3988 9.97291C61.9757 10.3658 61.6384 10.842 61.4084 11.3715C61.1783 11.9011 61.0602 12.4725 61.0618 13.0499L60.9718 14.1779L50.0508 14.2229L39.1298 14.2529L39.0398 13.1999C39.0342 12.5657 38.8926 11.9401 38.6248 11.3652C38.3569 10.7903 37.9689 10.2795 37.4869 9.86726C37.0049 9.45502 36.4401 9.1509 35.8307 8.97541C35.2212 8.79992 34.5812 8.75713 33.9538 8.84992ZM35.4728 11.6179C36.3608 12.0839 36.3728 12.1449 36.3728 16.4769C36.3728 20.8089 36.3428 20.9449 35.4548 21.4109C35.0478 21.6134 34.5784 21.6515 34.1442 21.517C33.7099 21.3826 33.3441 21.086 33.1228 20.6889C32.8068 20.1469 32.8368 12.8819 33.1378 12.2949C33.2458 12.0963 33.3922 11.9212 33.5684 11.7795C33.7446 11.6379 33.9472 11.5327 34.1643 11.4699C34.3815 11.4071 34.609 11.3881 34.8336 11.4138C35.0582 11.4396 35.2754 11.5096 35.4728 11.6199V11.6179ZM66.2798 11.6929C67.1368 12.2199 67.2128 12.6259 67.2128 16.5069C67.2128 20.3879 67.1378 20.7939 66.2798 21.3209C66.036 21.4945 65.7473 21.594 65.4483 21.6073C65.1494 21.6206 64.853 21.5472 64.5948 21.3959C63.6468 20.9449 63.6018 20.7189 63.6018 16.5069C63.6018 13.2879 63.6318 12.6559 63.8428 12.3069C63.954 12.0979 64.1079 11.9146 64.2943 11.7687C64.4808 11.6228 64.6958 11.5177 64.9254 11.46C65.1551 11.4024 65.3942 11.3935 65.6275 11.4339C65.8608 11.4744 66.083 11.5633 66.2798 11.6949V11.6929ZM30.2538 18.7199C30.3438 21.1269 30.5848 21.8639 31.6228 22.9199C32.1202 23.4247 32.7348 23.7985 33.4118 24.008C34.0888 24.2176 34.8071 24.2563 35.5027 24.1207C36.1983 23.9852 36.8495 23.6795 37.3983 23.2311C37.947 22.7828 38.3763 22.2055 38.6478 21.5509C38.9888 20.6755 39.1276 19.7345 39.0538 18.7979L39.1138 16.8119L50.0498 16.8419L60.9708 16.8869L61.0458 18.9929C61.1058 20.7979 61.1658 21.2039 61.4668 21.8059C61.7847 22.417 62.2417 22.9449 62.8009 23.3472C63.3602 23.7494 64.0061 24.0147 64.6866 24.1217C65.3671 24.2288 66.0632 24.1745 66.7189 23.9633C67.3746 23.7521 67.9716 23.39 68.4618 22.9059C69.4398 21.8979 69.6618 21.2059 69.7558 18.9199L69.8458 16.8889H71.6508C72.5123 16.834 73.3769 16.9256 74.2078 17.1599C75.3733 17.6291 76.3335 18.4985 76.9158 19.6119L77.3668 20.4989L77.4118 25.5829L77.4568 30.6519L50.0338 30.6219L22.6108 30.5769V25.6879C22.6108 20.9499 22.6258 20.7689 22.9568 19.9419C23.2639 19.216 23.7346 18.5708 24.3322 18.0569C24.9298 17.5429 25.6381 17.174 26.4018 16.9789C27.1193 16.878 27.8431 16.8278 28.5678 16.8289L30.1778 16.8139L30.2538 18.7199ZM38.8428 33.2959C39.0538 33.3709 39.0838 33.9429 39.0838 38.1849V42.9849L30.8558 42.9549L22.6128 42.9099L22.5618 38.2599C22.4655 36.6444 22.5107 35.0235 22.6968 33.4159C22.8168 33.2659 24.4268 33.2159 30.7298 33.2159C35.0668 33.2059 38.7068 33.2499 38.8428 33.2959ZM58.2628 38.0959V42.9099L50.0348 42.9549L41.7918 42.9849V33.2069L50.0348 33.2519L58.2628 33.2819V38.0959ZM77.3628 38.0959V42.9099L69.1348 42.9549L60.8918 42.9849V38.2009C60.8918 35.5689 60.9368 33.3569 60.9968 33.3009C61.0568 33.2559 64.7578 33.2259 69.2248 33.2409L77.3628 33.2859V38.0959ZM39.0838 50.3499V55.1639H22.5368V50.4559C22.5368 47.8559 22.5818 45.6879 22.6418 45.6419C22.6868 45.5819 26.4178 45.5369 30.9148 45.5369H39.0828L39.0838 50.3499ZM58.3078 50.3799L58.3378 55.1639H41.7908V45.5369L50.0338 45.5669L58.2618 45.6119L58.3078 50.3799ZM77.4078 50.3799L77.4378 55.1639H60.8948V45.5369L69.1378 45.5669L77.3658 45.6119L77.4078 50.3799ZM39.0798 62.6799V67.4939H32.8708C25.9968 67.4939 25.7558 67.4639 24.5828 66.5759C23.8337 65.9936 23.2566 65.2192 22.9128 64.3349C22.612 63.249 22.495 62.1204 22.5668 60.9959C22.5175 60.0295 22.5275 59.0611 22.5968 58.0959C22.6718 57.8959 23.6968 57.8699 30.8848 57.8699H39.0848L39.0798 62.6799ZM58.3338 62.6799V67.4939H41.7908V57.8669H58.3378L58.3338 62.6799ZM77.4078 60.8299C77.3628 63.5529 77.3328 63.8689 77.0168 64.5459C76.5709 65.5995 75.7737 66.466 74.7608 66.9979L73.9038 67.4189L67.4038 67.4639L60.8908 67.5089V57.8669H77.4718L77.4078 60.8299Z" fill="white"/>
<path d="M51.9896 36.0938L49.4775 38.6938L48.3045 37.4448C47.2515 36.3448 47.0715 36.2118 46.5895 36.2118C46.3642 36.2059 46.1408 36.2546 45.9385 36.3539C45.7361 36.4533 45.5609 36.6002 45.4278 36.782C45.2947 36.9639 45.2076 37.1754 45.1742 37.3983C45.1407 37.6212 45.1617 37.8489 45.2355 38.0618C45.8115 38.8502 46.4556 39.5864 47.1605 40.2618C49.6875 42.8938 49.3116 42.9549 53.0426 39.1339C56.1716 35.9148 56.5326 35.4638 56.5326 34.8168C56.4854 34.4602 56.3124 34.1322 56.0447 33.892C55.7769 33.6518 55.4322 33.5152 55.0726 33.5068C54.5316 33.5068 54.3806 33.6118 51.9896 36.0938Z" fill="white"/>
</g>
</g>
<defs>
<clipPath id="clip0_96_4">
<rect width="100" height="79" fill="white"/>
</clipPath>
</defs>
</svg>
