<svg width="1806" height="1292" viewBox="0 0 1806 1292" fill="none" xmlns="http://www.w3.org/2000/svg">
<g clip-path="url(#clip0_35_26)">
<path d="M-0.00166543 -2.00507C-0.534427 -2.00507 -1.04512 -1.79378 -1.42217 -1.41665C-1.79879 -1.03996 -2.0105 -0.529096 -2.0105 0.00387384L-2.00888 1292C-2.00888 1293.11 -1.10942 1294.01 -0.00012967 1294.01L1806 1294.01C1806.34 1294.01 1806.66 1293.93 1806.95 1293.77C1807.13 1293.68 1807.28 1293.57 1807.42 1293.43C1807.8 1293.05 1808.01 1292.54 1808.01 1292.01L1808.01 0.00555166C1808.01 -1.10405 1807.11 -2.00349 1806 -2.00349L-0.00166543 -2.00507Z" fill="#1ABC9C"/>
<path d="M739.263 1113.8V1113.81C750.3 1119.9 758.005 1123.57 762.379 1124.8C766.036 1125.86 768.201 1126.4 768.874 1126.41C770.241 1126.71 774.3 1127.08 781.052 1127.51C782.82 1127.87 783.693 1128.17 783.671 1128.4L784.044 1128.93C784.197 1129.34 784.172 1129.84 783.968 1130.43C783.539 1131.63 782.519 1132.98 780.91 1134.45C778.444 1136.76 775.122 1138.54 770.942 1139.82C767.912 1140.66 764.231 1140.98 759.899 1140.81C755.459 1140.62 749.439 1139.84 741.84 1138.47C730.421 1138.94 722.617 1139.08 718.427 1138.89C711.546 1138.53 707.664 1138.18 706.78 1137.83C702.168 1137.06 698.788 1135.61 696.64 1133.49L695.359 1131.71C694.69 1130.43 694.329 1128.98 694.276 1127.36C694.09 1121.7 697.547 1112.4 704.646 1099.46L739.263 1113.8Z" fill="#FEBA9B"/>
<path d="M747.768 1101.84L750.128 1103.13C758.804 1107.94 765.723 1111.17 770.883 1112.83C772.36 1113.32 773.815 1113.72 775.25 1114.03C775.525 1114.11 776.327 1114.26 777.654 1114.49C779.043 1114.78 782.755 1115.1 788.789 1115.45C790.282 1115.64 791.186 1115.83 791.501 1116.02C793.491 1117.12 792.796 1119.27 789.415 1122.49C787.222 1124.26 785.775 1125.28 785.074 1125.56C783.947 1126.18 782.735 1126.74 781.439 1127.22C779.234 1128.1 776.262 1128.65 772.524 1128.85C767.294 1129.06 759.902 1128.28 750.346 1126.5L724.479 1125.81L747.768 1101.84Z" fill="#FEBA9B"/>
<path d="M691.6 1132.24L692.314 1127.9C695.63 1107.61 697.062 1090.27 696.979 1075.89C696.968 1074 697.11 1066.64 696.528 1053.83C694.897 1017.92 693.955 998.908 693.906 996.779C693.673 986.453 693.757 977.596 694.176 970.179C694.299 968.001 694.818 963.194 696.029 955.765L702.694 927.798C703.073 926.643 703.889 921.559 705.098 912.542C706.986 898.479 708.042 880.111 707.301 857.466C706.705 839.203 704.229 825.035 700.881 814.919L698.012 805.332C689.611 792.845 684.332 782.818 681.666 775.424C679.032 768.126 676.365 756.123 674.169 739.228C703.878 668.497 734.247 664.186 734.247 664.186C763.408 660.047 793.278 722.324 793.278 722.324C795.352 752.317 796.577 772.605 796.954 783.19L797.79 804.11C794.247 850.861 790.823 886.047 787.059 909.601C782.641 937.259 775.759 959.793 766.868 977.286C763.145 1019.47 761.073 1047.69 760.278 1061.92C759.686 1072.54 759.868 1085.5 760.671 1100.83C760.851 1104.29 760.479 1106.83 759.952 1108.4C759.015 1111.2 757.442 1112.66 755.586 1113.46C753.644 1114.29 749.142 1115.17 741.789 1115.48L736.92 1053.99L742.496 1119.57C734.813 1129.05 727.947 1133.86 722.221 1135.42C717.274 1136.76 707.214 1136.16 691.6 1132.24L691.6 1132.24Z" fill="black" fill-opacity="0.99608"/>
<path d="M753.977 1101.68V1101.68L782.602 1110.03C784.321 1110.43 785.984 1110.86 787.588 1111.33C788.383 1111.56 789.143 1111.82 789.866 1112.09C793.693 1113.35 795.692 1115.62 795.863 1118.88C796.111 1120.09 795.67 1123.02 794.539 1127.67L737.966 1118.8L753.977 1101.68Z" fill="black" fill-opacity="0.99608"/>
<path d="M748.868 1101.51L750.148 1102.84C756.127 1108.99 761.099 1112.84 765.064 1114.38C767.27 1115.4 769.57 1116.2 771.964 1116.77C773.329 1117.11 774.734 1117.4 776.178 1117.66C785.643 1119.15 790.537 1120.01 790.86 1120.25C794.095 1121.07 796.372 1122.08 797.69 1123.28C799.572 1124.53 800.201 1127.11 799.577 1131.02C798.574 1134.66 796.177 1137.87 792.386 1140.65C788.223 1143.89 780.84 1145.5 770.235 1145.47C769.3 1145.51 766.346 1145.42 761.374 1145.22L710.593 1142.87C706.408 1143.14 703.277 1143.21 701.199 1143.06C696.625 1142.67 693.62 1141.57 692.187 1139.76C690.161 1137.77 689.276 1134.03 689.53 1128.53C689.382 1125.38 690.842 1116.92 693.91 1103.17L711.013 1116.25L748.868 1101.51Z" fill="black" fill-opacity="0.99608"/>
<path d="M896.905 532.437L897.834 531.552C907.563 522.699 914.361 513.939 918.228 505.27C919.626 501.927 920.706 498.349 921.468 494.536C922.14 491.385 922.862 486.814 923.635 480.822L924.725 475.305C927.637 475.513 929.344 475.292 929.849 474.644C930.736 472.87 930.225 471.038 928.316 469.148C930.101 469.501 931.207 469.084 931.635 467.896C931.699 467.161 931.406 466.472 930.757 465.83C930.213 465.143 928.558 463.775 925.792 461.727L926.521 459.772C928.109 458.133 929.031 457.01 929.288 456.403C929.64 455.759 929.633 455.005 929.264 454.141C931.121 458.709 932.775 461.254 934.225 461.777C935.286 462.252 936.347 462.254 937.409 461.783C938.448 461.301 938.974 460.506 938.99 459.4C939.107 458.043 937.047 455.348 932.809 451.316C934.904 449.694 935.362 448.212 934.184 446.869C933.042 445.759 930.483 444.336 926.507 442.601C924.622 441.109 923.213 440.112 922.278 439.607C920.703 438.786 919.714 438.341 919.31 438.271C915.794 437.13 911.588 437.299 906.69 438.779C901.118 440.698 897.261 442.83 895.118 445.178C893.586 446.332 892.12 448.799 890.718 452.579C889.811 454.685 889.33 459.559 889.277 467.203C887.68 469.012 886.703 470.568 886.348 471.871C885.913 473.102 885.705 475.347 885.722 478.605L877.697 482.547L884.788 494.552L872.897 514.816L896.905 532.437Z" fill="white"/>
<path d="M878.553 482.002L884.434 490.898L884.446 504.799L878.316 511.928C885.438 513.011 889.972 514.167 891.918 515.394C893.936 516.04 898.239 519.064 904.827 524.464C883.655 551.222 870.559 566.926 865.54 571.576L755.927 571.682L748.867 558.077L832.163 506.438L835.287 510.12C846.173 504.269 854.605 499.568 860.584 496.018C867.185 492.082 873.174 487.41 878.553 482.002Z" fill="#FFBCA5"/>
<path d="M856.387 346.463L857.828 345.737C864.403 342.685 868.173 339.605 869.139 336.495C870.254 333.803 868.403 328.786 863.588 321.445C845.585 309.451 832.733 302.508 825.033 300.616C816.828 297.897 808.524 298.57 800.121 302.632C793.081 306.756 787.437 311.59 783.189 317.134C776.119 326.417 771.556 334.507 769.501 341.404C766.87 349.256 765.426 357.484 765.166 366.088C764.812 373.213 765.129 383.444 766.118 396.782L856.387 346.463Z" fill="black"/>
<path d="M799.442 446.12L799.759 445.381C800.918 442.618 801.898 440.74 802.698 439.745L803.749 438.752C806.293 438.092 807.986 437.257 808.828 436.247C810.363 434.633 812.435 431.556 815.045 427.016C831.605 425.806 844.857 418.391 854.803 404.772C857.07 401.059 858.303 397.303 858.5 393.505C858.923 391.331 858.476 385.892 857.158 377.187C857.243 376.549 857.48 375.767 857.87 374.84L861.359 367.229C862.317 364.349 862.802 362.139 862.815 360.598C863.07 356.192 862.372 350.202 860.721 342.628L841.477 335.117L834.254 343.288L835.791 350.74L826.429 357.6L821.553 369.744L807.278 369.911L809.513 355.134C804.383 351.316 800.551 350.307 798.016 352.108C794.284 354.521 789.785 362.082 784.52 374.791L771.97 388.079L765.625 387.715C761.529 395.807 758.516 400.996 756.585 403.284C754.634 405.885 751.825 408.028 748.159 409.713L799.442 446.12Z" fill="#FFBCA5"/>
<path d="M750.112 403.35V403.358L758.697 409.891C785.893 430.417 802.976 446.372 809.738 457.88C813.017 463.463 814.836 469.158 815.403 474.843L836.262 510.102C832.856 507.703 829.952 510.466 827.55 518.389L833.305 548.688L813.593 555.546L845.121 760.81L799.562 758.466L660.936 776.528C660.305 755.667 676.965 526.44 680.254 498.481C682.007 483.586 685.648 470.453 690.207 458.832C694.158 448.754 701.573 438.296 713.14 427.876C721.432 420.405 733.829 412.309 750.115 403.345L750.112 403.35Z" fill="white"/>
<path d="M812.474 413.424L814.273 413.68C817.943 414.292 821.293 414.458 824.324 414.18C826.671 413.697 827.987 413.279 828.272 412.926C829.032 412.485 829.695 411.907 830.26 411.193C830.818 410.471 831.28 409.613 831.644 408.619C831.921 408.255 832.292 406.52 832.755 403.412C833.134 400.188 833.119 394.911 832.708 387.583L859.849 384.922C859.623 393.18 859.285 398.923 858.836 402.153C858.35 406.559 857.432 410.587 856.083 414.236C854.066 419.717 850.523 423.86 845.453 426.667C842.079 428.542 838.272 430.039 834.034 431.158C830.94 432.072 825.373 433.234 817.332 434.645L812.474 413.424Z" fill="white"/>
<path d="M839.846 389.249C820.184 366.165 800.521 343.081 780.859 319.996C779.447 322.174 778.035 324.352 776.623 326.529C796.397 348.476 816.172 370.423 835.946 392.369L839.846 389.249Z" fill="white"/>
<path d="M817.405 415.429L765.238 388.443C764.313 390.197 763.389 391.952 762.464 393.707C781.202 403.004 799.94 412.301 818.678 421.597L817.405 415.429Z" fill="white"/>
<path d="M807.219 370.346L807.646 369.103C808.557 366.603 809.215 364.159 809.62 361.771C809.866 360.185 809.859 358.655 809.598 357.181C809.335 355.514 808.493 353.83 807.073 352.131C806.392 351.372 805.638 350.753 804.809 350.272L804.182 349.951C803.747 349.754 803.325 349.611 802.916 349.52C801.858 349.268 800.799 349.349 799.739 349.762L798.773 350.265C798.135 350.673 797.508 351.202 796.891 351.851C794.732 354.123 792.083 358.493 788.945 364.961L807.219 370.346Z" fill="#FFC4AF"/>
<path d="M905.264 448.093L905.197 449.667C903.475 449.358 901.753 449.049 900.031 448.74L905.264 448.093Z" fill="#6D6D6D"/>
<path d="M957.132 454.189L948.514 451.886L924.402 449.931L904.336 447.982L904.757 450.383L920.255 452.026C922.333 451.786 923.894 451.716 924.937 451.815C926.158 451.973 927.146 452.465 927.9 453.292C932.156 453.92 935.818 454.336 938.885 454.54C940.658 454.676 943.888 454.845 948.577 455.048L957.132 454.189Z" fill="#6D6D6D"/>
<path d="M931.44 467.254L931.062 466.265C931.173 466.205 930.961 465.946 930.427 465.488C929.998 465.106 928.763 464.104 926.723 462.482L932.277 462.262L953.163 462.977L954.151 465.899L932.726 465.754L931.44 467.254Z" fill="#6D6D6D"/>
<path d="M864.244 569.871L861.407 573.004C851.048 584.718 842.237 592.643 834.975 596.778C826.995 601.36 818.694 603.004 810.073 601.712C809.346 601.703 807.233 601.223 803.735 600.273C800.95 599.406 798.254 598.256 795.646 596.823C791.796 594.727 788.121 591.93 784.623 588.432C779.274 583.659 771.941 572.916 762.626 556.205L818.748 549.841L864.244 569.871Z" fill="#FFBCA5"/>
<path d="M842.208 371.915L842.866 371.751C845.748 370.975 848.042 370.685 849.749 370.88C850.128 370.927 850.496 370.998 850.856 371.093C851.044 371.117 851.566 371.302 852.42 371.647C853.267 372.013 854.401 372.658 855.82 373.583C853.302 372.994 851.274 372.612 849.738 372.436C848.249 372.241 845.739 372.067 842.208 371.915Z" fill="black" fill-opacity="0.99608"/>
<path d="M843.792 377.009L851.598 375.406C851.948 376.389 852.085 377.167 852.008 377.741C851.976 378.299 851.675 379.219 851.106 380.501L843.792 377.009Z" fill="white" fill-opacity="0.99608"/>
<path d="M851.569 375.343L849.232 377.484L850.967 380.346C851.408 379.706 851.713 379.21 851.882 378.857C852.041 378.506 852.126 378.295 852.134 378.226C852.176 378.087 852.205 377.947 852.221 377.807C852.238 377.669 852.242 377.531 852.235 377.392C852.243 377.323 852.209 377.117 852.132 376.773C852.047 376.432 851.859 375.955 851.569 375.343Z" fill="black" fill-opacity="0.99608"/>
<path d="M951.699 462.484L951.698 462.489C951.695 462.497 951.686 462.504 951.673 462.508C951.659 462.512 951.643 462.514 951.625 462.511C951.607 462.509 951.594 462.505 951.584 462.497C951.58 462.495 951.578 462.493 951.576 462.49L951.573 462.486C951.572 462.483 951.571 462.48 951.571 462.477C951.572 462.468 951.579 462.461 951.591 462.456C951.604 462.45 951.619 462.448 951.637 462.449C951.655 462.45 951.67 462.454 951.681 462.461C951.693 462.467 951.699 462.475 951.699 462.484Z" fill="#6D6D6D"/>
<path d="M964.003 463.94L963.898 464.81C963.526 466.556 962.637 467.921 961.229 468.905C959.812 469.887 958.187 470.23 956.353 469.933C954.607 469.561 953.243 468.672 952.259 467.264C951.276 465.847 950.933 464.222 951.23 462.388C951.602 460.642 952.491 459.277 953.899 458.293C955.316 457.31 956.941 456.967 958.775 457.264C960.521 457.636 961.885 458.525 962.869 459.933C963.184 460.388 963.438 460.879 963.63 461.406L963.864 462.215C963.986 462.77 964.033 463.345 964.003 463.94Z" fill="#6D6D6D"/>
<path d="M1034.42 488.049L1034.13 488.824C1032.97 492.29 1031.69 494.638 1030.3 495.869C1029.86 496.339 1028.97 496.788 1027.62 497.217C1026.65 497.489 1025.17 497.659 1023.19 497.725L1028.42 506.35L1040.85 504.074L1040.3 490.814L1034.42 488.049Z" fill="#FF4000"/>
<path d="M531.565 907.957L617.395 817.904L703.224 727.852C714.1 751.583 724.976 775.315 735.85 799.048L637.017 896.029C614.299 921.843 591.582 947.657 568.866 973.471L531.565 907.957Z" fill="#5787B2"/>
<path d="M968.385 783.285L965.195 787.114L936.548 821.723C930.681 828.165 926.158 832.667 922.978 835.229C911.442 844.739 900.603 850.728 890.462 853.194C882.108 855.579 873.205 856.069 863.752 854.666C862.221 854.608 857.435 853.498 849.395 851.337C828.344 844.484 817.136 841.048 815.77 841.027C814.147 840.433 809.632 839.725 802.227 838.904C793.307 837.821 779.553 839.395 760.965 843.626L757.816 754.122C772.731 749.274 784.508 746.829 793.147 746.789C801.576 746.324 815.401 748.01 834.622 751.848L879.037 716.312L968.385 783.285Z" fill="#3A6974"/>
<path d="M1088.63 461.498L1089.6 461.304C1096.46 459.915 1103.69 461.044 1111.29 464.693C1118.96 467.874 1125.68 472.972 1131.46 479.989C1141.49 494.247 1143.69 509.327 1138.05 525.231C1133.62 538.362 1125.74 548.404 1114.41 555.36C1109.45 558.139 1103.69 560.027 1097.13 561.026C1089.53 562.239 1078.8 562.744 1064.95 562.543L1053.27 569.95L1088.63 461.498Z" fill="black" fill-opacity="0.99608"/>
<path d="M1046.44 577.083V577.09L1046.44 577.084L1060.1 565.719L1065.96 562.514C1063.59 558.218 1062.55 554.332 1063.04 550.885C1063.5 547.654 1065.18 544.387 1068.06 541.239C1070.52 538.557 1072.59 536.985 1073.99 536.211C1074.89 535.709 1075.76 535.145 1076.69 534.731C1082.68 532.086 1085.79 530.64 1086 530.297C1087.47 529.521 1089.15 528.221 1090.31 525.965C1092.96 520.783 1092.44 517.145 1089.7 515.147C1088.98 514.622 1087.61 514.243 1085.39 513.991C1084.64 513.905 1081.16 514.187 1074.88 514.897C1073.35 515.071 1072.56 514.747 1072.79 514.24C1073.23 513.272 1074.05 512.518 1074.95 511.796C1081.5 506.541 1085.9 502.893 1088.1 500.819C1092.14 497.013 1094.22 494.55 1094.85 493.807C1098.45 489.525 1100.9 484.273 1100.34 477.791C1099.51 468.261 1095.66 462.664 1090.25 460.832C1079.53 462.946 1072.79 464.902 1069.85 466.336C1066.58 467.926 1064.01 470.5 1062.31 474.43C1049.08 473.795 1041.55 474.417 1039.28 475.493C1036.47 476.822 1036.45 479.769 1039.58 485.183C1035.16 486.617 1034.32 485.833 1033.41 486.712C1033.11 486.993 1035.05 489.634 1034.91 492.4C1034.76 495.26 1032.54 498.252 1032.66 498.736C1030.73 499.082 1025.95 497.547 1024.02 496.642C1022.85 496.095 1023.85 497.476 1021.37 501.248C1017.07 503.333 1014.09 505.179 1012.7 506.985C1011.35 508.732 1010.92 510.216 1011.17 511.25C1011 513.102 1012.49 516.766 1015.62 522.243L1024.23 529.533L1011.64 552.836L1046.44 577.083Z" fill="#FFB298"/>
<path d="M1071.57 491.154L1071.78 490.548C1072.76 487.9 1073.23 485.763 1073.2 484.139C1073.19 483.779 1073.15 483.425 1073.09 483.079C1073.09 482.899 1072.96 482.392 1072.71 481.557C1072.44 480.727 1071.93 479.604 1071.18 478.187C1071.52 480.61 1071.7 482.553 1071.73 484.016C1071.79 485.434 1071.73 487.814 1071.57 491.154Z" fill="black" fill-opacity="0.99608"/>
<path d="M1066.91 489.23L1069.1 482.016C1068.2 481.601 1067.48 481.404 1066.94 481.427C1066.41 481.409 1065.52 481.612 1064.26 482.038L1066.91 489.23Z" fill="white" fill-opacity="0.99608"/>
<path d="M1069.15 482.05L1066.93 484.065L1064.38 482.184C1065.02 481.823 1065.52 481.579 1065.86 481.45C1066.21 481.33 1066.41 481.269 1066.48 481.267C1066.61 481.24 1066.75 481.225 1066.88 481.221C1067.01 481.217 1067.14 481.225 1067.27 481.245C1067.34 481.243 1067.53 481.293 1067.85 481.395C1068.16 481.505 1068.59 481.723 1069.15 482.05Z" fill="black" fill-opacity="0.99608"/>
<path d="M939.217 798.97L936.878 800.82C914.654 819.082 893.109 827.631 872.242 826.466C861.634 825.293 853.808 823.438 848.763 820.902C845.497 819.584 842.205 818.126 838.888 816.526L809.276 801.574C802.857 798.503 796.712 796.193 790.841 794.644C781.854 791.818 768.196 790.822 749.869 791.654L763.524 703.143C790.055 703.835 815.346 707.882 839.398 715.284L889.677 688.691L939.217 798.97Z" fill="#3A6974"/>
<path d="M1053.27 579.945L1054.55 577.726C1057.83 572.048 1060.27 568.652 1061.69 567.332C1062.09 566.963 1061.8 566.468 1061.15 565.881C1060.61 565.385 1057.28 563.659 1051.04 560.841L1013.55 544.289L1006.49 555.027L973.36 572.375C950.234 584.757 947.707 614.433 936.824 611.411L914.247 629.85L916.554 606.23C902.451 625.934 893.377 640.492 888.738 649.612C884.229 658.474 878.232 674.703 869.973 698.14C868.085 703.499 866.203 706.068 865.669 706.382C861.761 712.692 854.665 712.61 844.38 706.137C857.706 736.806 870.859 757.657 882.874 769.685C893.978 780.799 914.352 792.773 944.991 804.637C959.231 766.41 972.472 736.07 984.71 713.618L997.637 692.412L1031.44 645.02C1036.94 636.407 1039.77 631.261 1040.46 629.794C1047.43 615.062 1051.87 598.527 1053.27 579.943L1053.27 579.945Z" fill="white"/>
<path d="M1053.92 573.202L999.614 553.285C952.739 571.125 922.874 585.692 910.02 596.987C899.106 606.298 893.093 612.154 891.981 614.552C888.657 618.799 885.611 623.157 882.845 627.626C873.688 643.415 866.808 654.163 862.205 659.87C856.239 667.807 848.262 674.138 838.273 678.865C827.717 683.237 815.284 686.039 800.974 687.272C793.414 688.206 772.311 689.265 737.665 690.449C731.249 690.836 725.395 691.447 720.103 692.282C704.851 695.077 694.17 699.85 688.059 706.6C681.949 713.351 677.362 720.761 674.298 728.829L712.729 816.548L752.425 789.004L975.807 789.452C1023.91 699.534 1051.55 643.585 1058.72 621.605C1068.91 595.527 1067.31 579.392 1053.92 573.2" fill="#98D8FF" fill-opacity="0.99608"/>
<path d="M1033.82 623.313C1019.79 641.901 1023.47 668.363 1042.06 682.394L1070.17 682.396L1114.78 586.121C1096.2 572.075 1069.75 575.758 1055.71 594.346L1033.82 623.313Z" fill="#3C464F"/>
<path d="M861.318 863.489L819.142 863.49L819.142 993.269L861.318 993.27L861.318 863.489ZM861.318 863.489L819.142 863.49L819.142 993.269L861.318 993.27L861.318 863.489ZM861.318 863.489L819.142 863.49L819.142 993.269L861.318 993.27L861.318 863.489ZM861.318 863.489L819.142 863.49L819.142 993.269L861.318 993.27L861.318 863.489Z" fill="black"/>
<path d="M871.359 987.03L806.5 987.03L806.5 1108.9H871.359L871.359 987.03ZM871.359 987.03L806.5 987.03L806.5 1108.9H871.359L871.359 987.03ZM871.359 987.03L806.5 987.03L806.5 1108.9H871.359L871.359 987.03ZM871.359 987.03L806.5 987.03L806.5 1108.9H871.359L871.359 987.03Z" fill="black"/>
<path d="M780.929 725.072L967.333 725.073V682.891L823.102 682.893C799.806 682.891 780.926 701.773 780.926 725.073L780.929 725.072Z" fill="#3C464F"/>
<path d="M735.238 791.855L756.326 791.856V760.218C756.326 746.65 767.365 735.613 780.929 735.611L1034.43 735.613V714.521L780.929 714.523C755.736 714.521 735.238 735.02 735.238 760.218V791.855Z" fill="black"/>
<path d="M934.674 817.566L934.674 852.141C934.674 866.075 923.272 877.478 909.34 877.478L771.112 877.479C757.181 877.477 745.778 866.074 745.778 852.142L745.779 817.565L934.674 817.566Z" fill="#3C464F"/>
<path d="M525.486 996.57L675.328 798.178C682.316 788.927 697.527 781.348 709.126 781.346L967.334 781.348L1114.78 586.158C1119.38 580.083 1126.66 576.146 1134.87 576.146C1148.79 576.147 1160.07 587.423 1160.07 601.342C1160.07 607.036 1158.16 612.296 1154.96 616.514L992.409 831.74L713.117 831.742L565.666 1026.93C561.068 1033.01 553.785 1036.94 545.575 1036.94C531.657 1036.94 520.381 1025.67 520.381 1011.75C520.382 1006.04 522.293 1000.79 525.485 996.576L525.486 996.57Z" fill="black"/>
<path d="M685.358 1096.83C685.358 1096.83 992.508 1096.83 992.508 1096.83C992.508 1096.83 1010.5 1096.83 1010.5 1096.83L1010.5 1156.82C1010.5 1161.79 1006.47 1165.82 1001.5 1165.82C996.535 1165.82 992.506 1161.79 992.506 1156.82L992.506 1132.83L685.357 1132.83V1156.82C685.357 1161.79 681.328 1165.82 676.358 1165.82C671.389 1165.82 667.359 1161.79 667.359 1156.82V1096.82L685.358 1096.83Z" fill="#3C464F"/>
<path d="M755.044 912L923.308 912.002C923.308 948.514 923.308 985.026 923.308 1021.54C867.221 1021.54 811.133 1021.54 755.044 1021.54C755.044 985.026 755.044 948.512 755.044 912Z" fill="#3C464F"/>
<path d="M547.152 885.157L545.073 884.943C535.377 883.924 528.445 882.186 524.279 879.73C521.818 878.476 519.49 876.982 517.295 875.248C516.04 874.262 514.789 873.214 513.543 872.106C505.561 864.699 501.351 860.934 500.913 860.812C497.914 858.493 495.411 857.17 493.405 856.842C490.973 856.033 488.228 857.283 485.171 860.593C482.623 864.046 481.44 868.443 481.622 873.783C481.653 879.776 485.406 887.501 492.88 896.958C493.507 897.817 495.659 900.396 499.333 904.694L537.112 948.406C539.808 952.335 541.952 955.176 543.545 956.929C547.106 960.742 550.199 962.653 552.825 962.659C556.025 963.071 559.99 961.233 564.718 957.146C567.641 955.061 574.163 947.817 584.287 935.415L560.591 929.326L547.152 885.157Z" fill="black" fill-opacity="0.99608"/>
<path d="M1554.81 1147.44L1548.97 1151.89C1521.31 1160.87 1440.36 1168.04 1306.14 1173.43C1170.98 1178.8 1011.83 1180.98 828.674 1179.96C653.873 1178.54 514.077 1174.39 409.285 1167.5C375.705 1165.27 348.046 1162.84 326.307 1160.21L298.9 1156.16C283.843 1153.38 276.23 1150.47 276.061 1147.44C280.632 1138.14 343.058 1130.4 463.339 1124.22C583.609 1118.05 734.314 1114.85 915.453 1114.61C1096.58 1114.85 1247.29 1118.05 1367.57 1124.23C1487.84 1130.4 1550.26 1138.14 1554.83 1147.44" fill="black" fill-opacity="0.22353"/>
<path d="M1178.93 251.188C1176.68 241.463 1170.11 234.337 1159.91 230.558C1153.12 228.048 1136.58 225.749 1129.29 234.309C1105.82 220.39 1093.44 227.967 1085.11 236.908C1066.73 256.646 1075.13 276.533 1082.99 285.17C1088.67 291.424 1090.31 295.039 1091.23 299.169C1091.43 300.077 1091.9 302.761 1091.92 303.336C1093.37 337.723 1105.09 340.673 1107.89 340.88C1108.71 341.115 1109.52 341.223 1110.3 341.223C1111.72 341.223 1113.08 340.843 1114.31 340.089C1120.13 336.522 1121.93 325.412 1123.51 315.629C1124.08 312.089 1124.62 308.746 1125.24 306.802C1126.33 303.436 1127.22 302.669 1127.22 302.552C1128 302.9 1129.31 305.419 1129.46 306.412C1129.68 307.895 1129.83 309.815 1130 311.968C1130.9 323.013 1132.24 339.669 1143.98 340.879C1144.82 341.057 1146.8 341.242 1149.23 339.773C1154.77 336.412 1158.87 326.785 1161.41 311.155L1161.79 308.655C1162.71 302.39 1163.98 293.803 1169.15 288.361C1175.13 282.12 1182.35 265.974 1178.93 251.188ZM1165.68 285.045C1159.45 291.598 1158 301.445 1157.05 307.971L1156.68 310.391C1153.75 328.371 1149.4 333.796 1147.07 335.436C1145.84 336.301 1145.08 336.179 1145.16 336.213L1144.62 336.103C1136.75 335.415 1135.59 321.089 1134.83 311.592C1134.64 309.314 1134.48 307.285 1134.25 305.717C1134.02 304.134 1131.78 298.099 1127.66 297.754C1123.24 297.456 1121.31 303.36 1120.68 305.328C1119.94 307.63 1119.39 310.976 1118.77 314.865C1117.56 322.313 1115.74 333.574 1111.8 335.993C1111.27 336.323 1110.48 336.661 1109.05 336.2L1108.32 336.087L1108.25 336.088C1108.13 336.087 1098.09 334.87 1096.75 303.139C1096.71 302.033 1096.13 298.911 1095.95 298.12C1094.69 292.462 1092.15 288.073 1086.57 281.942C1084.71 279.898 1068.97 261.347 1088.66 240.213C1097.7 230.501 1111.05 223.926 1141.34 248.818C1142.37 249.659 1143.88 249.518 1144.73 248.487C1145.58 247.456 1145.43 245.947 1144.41 245.092C1140.52 241.912 1136.88 239.207 1133.46 236.943C1139.05 231.337 1152.22 232.865 1158.25 235.102C1166.98 238.333 1172.36 244.113 1174.25 252.293C1177.12 264.764 1171.13 279.337 1165.68 285.047L1165.68 285.045Z" fill="#7CD0E3"/>
<path d="M1145.17 336.292C1145.16 336.294 1145.16 336.294 1145.16 336.294C1145.16 336.294 1145.17 336.294 1145.17 336.292H1145.17Z" fill="white"/>
<path d="M1145.2 336.389C1145.19 336.393 1145.17 336.395 1145.17 336.395C1145.16 336.395 1145.17 336.392 1145.19 336.389L1145.2 336.389H1145.2ZM1106.31 231.342C1098.38 231.34 1092.93 235.356 1088.53 240.087C1068.73 261.341 1084.57 280.014 1086.45 282.066C1092 288.182 1094.52 292.543 1095.78 298.16C1095.95 298.952 1096.53 302.058 1096.58 303.146C1097.9 334.629 1107.81 336.235 1108.24 336.27C1108.25 336.27 1108.25 336.271 1108.26 336.271L1108.26 336.272L1108.31 336.271L1109.02 336.38L1109.01 336.381C1109.52 336.543 1109.96 336.609 1110.34 336.609C1111.05 336.609 1111.54 336.376 1111.91 336.15C1115.93 333.677 1117.75 322.315 1118.95 314.929C1118.95 314.913 1118.96 314.909 1118.96 314.894C1119.59 310.999 1120.13 307.669 1120.86 305.383C1121.5 303.408 1123.31 297.925 1127.35 297.927C1127.45 297.927 1127.55 297.93 1127.66 297.937C1131.62 298.271 1133.85 304.155 1134.08 305.743C1134.29 307.252 1134.46 309.196 1134.64 311.387L1134.65 311.607L1134.66 311.63C1135.41 321.011 1136.55 335.577 1144.6 336.285L1144.6 336.286L1145.1 336.386L1145.1 336.387C1145.11 336.392 1145.12 336.396 1145.13 336.397L1145.13 336.398C1145.13 336.396 1145.13 336.394 1145.12 336.39L1145.12 336.39L1145.13 336.392C1145.15 336.394 1145.16 336.395 1145.17 336.395C1145.19 336.395 1145.21 336.392 1145.23 336.385L1145.23 336.385C1145.44 336.37 1146.16 336.306 1147.19 335.585C1149.58 333.9 1153.94 328.408 1156.87 310.419L1156.87 310.417L1157.24 307.997C1158.19 301.462 1159.64 291.674 1165.82 285.17C1171.3 279.422 1177.33 264.788 1174.44 252.248C1172.54 244 1167.11 238.176 1158.32 234.926C1155.35 233.823 1150.66 232.894 1145.99 232.893C1141.13 232.891 1136.24 233.896 1133.34 236.81C1133.3 236.849 1133.28 236.903 1133.29 236.959C1133.29 237.014 1133.32 237.063 1133.37 237.094C1136.78 239.354 1140.42 242.055 1144.3 245.233C1145.24 246.022 1145.38 247.416 1144.6 248.367C1144.16 248.903 1143.52 249.179 1142.88 249.178C1142.38 249.178 1141.88 249.013 1141.46 248.673C1125.86 235.851 1114.71 231.342 1106.31 231.342Z" fill="white"/>
<path d="M1032.57 185.391L1219.61 184.934C1220.71 184.932 1221.61 185.826 1221.62 186.933L1222.09 382.14C1222.1 383.247 1221.2 384.146 1220.1 384.149L1033.06 384.608C1032.53 384.609 1032.02 384.399 1031.64 384.024C1031.26 383.649 1031.05 383.14 1031.05 382.608L1030.57 187.402C1030.57 186.87 1030.78 186.36 1031.16 185.983C1031.53 185.607 1032.04 185.393 1032.57 185.391ZM1032.58 189.401L1034.58 187.392L1035.06 382.599L1033.05 380.599L1220.08 380.141L1218.09 382.15L1217.61 186.943L1219.62 188.943L1032.58 189.401Z" fill="#1A4A6E"/>
<path d="M1106.09 226.965C1112.28 226.965 1119.81 229.075 1129.12 234.593L1129.53 234.524C1133.33 230.065 1139.73 228.594 1145.98 228.594C1151.42 228.594 1156.66 229.711 1159.79 230.868C1169.9 234.612 1176.38 241.658 1178.61 251.267C1182 265.927 1174.83 281.963 1168.91 288.14C1163.65 293.669 1162.38 302.37 1161.47 308.61L1161.08 311.109C1158.54 326.75 1154.45 336.224 1149.06 339.497C1147.49 340.445 1146.12 340.675 1145.16 340.675C1144.69 340.675 1144.3 340.617 1144.05 340.562L1144.01 340.557C1132.62 339.384 1131.24 323.188 1130.33 311.989L1130.32 311.946C1130.15 309.796 1129.99 307.865 1129.78 306.369C1129.63 305.346 1128.3 302.728 1127.37 302.276L1127.28 302.248L1127.26 302.244L1126.89 302.487H1126.88C1126.87 302.501 1126.86 302.519 1126.84 302.543C1126.55 302.943 1125.8 304.01 1124.93 306.706C1124.3 308.637 1123.77 311.927 1123.21 315.372C1123.2 315.469 1123.19 315.497 1123.19 315.497C1123.19 315.516 1123.18 315.543 1123.18 315.58C1121.59 325.449 1119.79 336.348 1114.13 339.816C1112.95 340.538 1111.66 340.902 1110.29 340.902H1110.29C1109.54 340.902 1108.77 340.798 1107.98 340.571L1107.91 340.559C1105.36 340.37 1093.69 337.656 1092.25 303.326C1092.22 302.72 1091.75 300.012 1091.54 299.101C1090.6 294.904 1088.93 291.237 1083.22 284.954C1075.44 276.399 1067.11 256.707 1085.34 237.135C1090.33 231.782 1096.73 226.965 1106.09 226.965ZM1217.6 188.611L1034.58 189.062L1034.25 189.389L1034.72 380.586C1034.72 380.765 1034.87 380.911 1035.05 380.911C1035.07 380.911 1035.08 380.91 1035.1 380.907H1035.08L1218.07 380.462L1218.39 380.136V380.132L1217.93 188.935L1217.6 188.61L1217.6 188.611Z" fill="#E0FAFF"/>
<path d="M1125.54 801.234L1323 800.982C1324.11 800.98 1325.01 801.876 1325.01 802.984L1325.45 1146.15C1325.45 1147.25 1324.56 1148.15 1323.45 1148.15L1125.99 1148.41C1125.45 1148.41 1124.94 1148.2 1124.57 1147.82C1124.19 1147.45 1123.98 1146.94 1123.98 1146.41L1123.54 803.242C1123.54 802.711 1123.75 802.2 1124.12 801.824C1124.5 801.447 1125.01 801.234 1125.54 801.234ZM1125.55 805.244L1127.55 803.236L1127.99 1146.4L1125.98 1144.4L1323.44 1144.15L1321.44 1146.15L1321 802.987L1323.01 804.989L1125.55 805.241L1125.55 805.244Z" fill="#1A4A6E"/>
<path d="M1321 804.468L1127.61 804.718C1127.59 804.716 1127.57 804.714 1127.55 804.714C1127.29 804.714 1127.08 804.926 1127.08 805.187V805.192L1127.51 1144.35C1127.51 1144.61 1127.72 1144.82 1127.99 1144.82C1128.01 1144.82 1128.03 1144.82 1128.05 1144.81H1128.02L1321.44 1144.57C1321.7 1144.57 1321.92 1144.36 1321.92 1144.1V1144.09L1321.48 804.939C1321.48 804.814 1321.43 804.693 1321.34 804.605C1321.25 804.516 1321.13 804.467 1321.01 804.467L1321 804.468Z" fill="#E0FAFF"/>
<path d="M1144.97 829.855L1306.69 829.649C1307.8 829.648 1308.7 830.544 1308.7 831.651L1308.77 886.203C1308.77 887.309 1307.87 888.208 1306.77 888.209L1145.05 888.417C1144.52 888.417 1144.01 888.207 1143.63 887.832C1143.26 887.456 1143.04 886.947 1143.04 886.415L1142.97 831.863C1142.97 831.331 1143.18 830.821 1143.56 830.445C1143.93 830.069 1144.44 829.856 1144.97 829.855ZM1144.98 833.865L1146.98 831.858L1147.05 886.411L1145.04 884.409L1306.76 884.202L1304.76 886.208L1304.69 831.658L1306.7 833.659L1144.98 833.865Z" fill="#1A4A6E"/>
<path d="M1304.7 833.413L1147.04 833.618C1147.03 833.615 1147.01 833.615 1147 833.615C1146.86 833.615 1146.76 833.721 1146.76 833.854V833.858L1146.82 884.403C1146.82 884.535 1146.93 884.642 1147.06 884.642C1147.08 884.642 1147.09 884.64 1147.1 884.638H1147.08L1304.77 884.44L1305.01 884.2V884.196L1304.94 833.653L1304.7 833.413Z" fill="#57A4B3"/>
</g>
<defs>
<clipPath id="clip0_35_26">
<rect width="1806" height="1292" fill="white"/>
</clipPath>
</defs>
</svg>
