<svg width="2495" height="338" viewBox="0 0 2495 338" fill="none" xmlns="http://www.w3.org/2000/svg">
<g clip-path="url(#clip0_34_58)">
<path d="M30.5 245.5V59L135 54L198 84C199.167 118.667 200.8 190.4 198 200C195.2 209.6 211.5 259.333 220 283V314.5L186 320L106 291.5L30.5 245.5Z" fill="white"/>
<path d="M260.5 278V168L373 161C381.167 176.5 397.5 208 397.5 210C397.5 212 387.167 270.167 382 299L260.5 278Z" fill="white"/>
<path d="M213.577 268.601C213.559 268.919 213.559 269.26 213.559 269.591V268.601H213.577Z" fill="#148C37"/>
<path d="M219.392 268.601V270.382C219.373 270.12 219.373 269.851 219.373 269.587C219.373 269.267 219.373 268.95 219.392 268.601Z" fill="#148C37"/>
<path d="M286.696 269.582C286.696 269.855 286.696 270.115 286.678 270.389V268.598C286.696 268.948 286.696 269.265 286.696 269.582Z" fill="#148C37"/>
<path d="M7.09413 93.9761C9.11605 94.4527 11.1671 94.796 13.2341 95.0035C15.0644 95.22 16.7466 96.1162 17.9472 97.5145C19.1478 98.9129 19.7793 100.711 19.7164 102.553C19.7767 106.067 19.7356 109.58 19.7164 113.095C19.7164 116.746 17.8611 118.15 14.1885 117.437C11.877 116.905 9.51848 116.606 7.14769 116.543C6.51339 115.949 5.68252 116.107 4.95318 115.962C4.2626 115.93 3.58549 115.76 2.9625 115.46C2.33952 115.16 1.7835 114.738 1.32785 114.218C0.872187 113.698 0.526279 113.092 0.310887 112.435C0.0954957 111.778 0.0150633 111.084 0.074419 110.395C-0.0144264 106.216 0.00167101 102.029 0.074419 97.8488C0.125188 94.6776 1.82192 93.3356 4.96185 93.8021C5.66054 93.9037 6.38027 93.9037 7.09413 93.9761Z" fill="url(#paint0_linear_34_58)"/>
<path d="M7.10681 155.026C9.04129 155.343 10.9699 155.707 12.9106 155.977C14.8129 156.139 16.5803 157.026 17.8477 158.454C19.1151 159.882 19.7857 161.742 19.721 163.65C19.7687 167.234 19.7464 170.82 19.721 174.404C19.721 177.616 17.9673 179.028 14.7293 178.492C12.2141 177.997 9.67277 177.645 7.11765 177.438C6.36602 177.277 5.61749 177.099 4.86587 176.957C4.18992 176.929 3.52656 176.765 2.91587 176.474C2.30519 176.183 1.75986 175.771 1.31285 175.263C0.86583 174.756 0.526408 174.163 0.315091 173.52C0.103775 172.877 0.0249512 172.198 0.0833846 171.524C-0.0370365 167.237 -0.018153 162.945 0.0833846 158.657C0.150251 155.716 1.66929 154.52 4.61883 154.804C5.44475 154.887 6.27563 154.954 7.10681 155.026Z" fill="url(#paint1_linear_34_58)"/>
<path d="M7.09966 216.118L12.9288 216.991C14.8256 217.173 16.5824 218.069 17.8427 219.498C19.103 220.927 19.7726 222.782 19.7157 224.687C19.7665 228.388 19.7504 232.093 19.7157 235.788C19.7913 236.313 19.7402 236.849 19.5668 237.35C19.3935 237.852 19.1027 238.305 18.7189 238.671C18.3351 239.038 17.8693 239.307 17.3603 239.457C16.8513 239.607 16.3138 239.633 15.7926 239.534C13.6581 239.394 11.546 238.969 9.4211 238.688C8.65678 238.586 7.88596 238.523 7.11545 238.443C6.39033 238.172 5.62485 238.025 4.85098 238.007C4.17612 237.966 3.51627 237.79 2.90978 237.492C2.30329 237.193 1.76226 236.776 1.31815 236.266C0.874047 235.757 0.535718 235.163 0.322833 234.522C0.109948 233.88 0.026755 233.202 0.0780913 232.528C-0.0203506 228.239 -0.0107541 223.963 0.0780913 219.663C0.135051 216.81 1.55286 215.617 4.44514 215.797C5.33204 215.858 6.21492 216.01 7.09966 216.118Z" fill="url(#paint2_linear_34_58)"/>
<path d="M380.477 309.759C377.969 309.76 375.467 309.51 373.008 309.011C364.99 308.135 356.729 307.169 349.44 306.318C346.213 305.94 342.984 305.564 339.754 305.19C328.118 303.822 316.092 302.423 304.01 301.031C298.751 300.423 293.489 299.821 288.222 299.224L287.88 299.185C283.409 298.675 278.941 298.164 274.476 297.652C272.686 297.445 270.896 297.237 269.106 297.026L266.483 296.719C259.59 295.91 253.373 295.183 247.092 294.481C246.189 294.382 245.927 294.095 246.01 293.298C246.032 292.821 246.032 292.338 246.01 291.861C246.047 216.756 246.017 140.629 245.923 65.5933C246.085 56.2224 243.713 46.9818 239.059 38.8468C236.885 34.9348 233.708 31.6719 229.856 29.3931C226.004 27.1143 221.614 25.9015 217.139 25.8794C212.734 25.6766 208.3 25.2182 204.013 24.777L203.796 24.7554C201.865 24.5566 199.868 24.3529 197.904 24.1746C195.608 23.9621 193.313 23.7534 191.02 23.5487C188.928 23.3596 186.835 23.1694 184.741 22.9778L184.574 22.9621C178.579 22.409 172.585 21.8526 166.594 21.2929C162.436 20.909 158.283 20.5199 154.135 20.1255C153.937 20.1029 153.742 20.066 153.549 20.0153C153.38 19.9747 153.188 19.9295 152.938 19.8785L179.343 17.2212C191.2 16.0138 200.994 15.0285 210.167 14.1171C213.982 13.7333 217.797 13.3541 221.613 12.9795L224.024 12.7414C228.4 12.3105 232.737 11.8811 237.073 11.4462C248.465 10.2829 258.433 9.27305 267.542 8.36168C272.871 7.8282 278.199 7.29998 283.527 6.77702L283.883 6.74173L287.186 6.41513C289.545 6.18337 291.905 5.94965 294.265 5.71397C297.447 5.39305 300.627 5.06501 303.806 4.72986L304.04 4.70633C310.811 4.00176 317.812 3.27149 324.712 2.66505C328.157 2.36601 331.729 1.94469 334.881 1.57445C341.444 0.802704 348.229 0.00557219 354.966 0.00557219C355.214 0.00557219 355.459 0.00742958 355.706 0.00959654C356.013 0.00402436 356.291 0 356.566 0C363.777 0.0117369 370.809 2.25008 376.7 6.40912C382.591 10.5682 387.054 16.445 389.48 23.2363C391.687 28.9788 393.015 35.0214 393.42 41.1602C394.056 48.3421 394.774 55.6395 395.468 62.6939L395.475 62.7629C395.83 66.3729 396.183 69.9835 396.532 73.5946C396.928 77.7321 397.319 81.8709 397.707 86.011C398.191 91.1583 398.678 96.2878 399.166 101.4C399.628 106.167 400.094 110.934 400.565 115.7L400.58 115.851C401.146 121.607 401.708 127.362 402.265 133.116C402.749 138.098 403.223 143.08 403.686 148.064L403.716 148.373C404.11 152.558 404.506 156.741 404.906 160.923C405.371 165.734 405.842 170.543 406.317 175.351L406.331 175.495C406.893 181.209 407.45 186.924 408.003 192.639C408.403 196.798 408.797 200.956 409.186 205.112L409.217 205.431L409.225 205.518C409.693 210.496 410.166 215.474 410.645 220.452C411.094 225.121 411.55 229.789 412.013 234.457C412.555 239.948 413.169 246.174 413.736 252.168C413.919 254.138 414.135 256.148 414.344 258.09L414.34 258.13H414.348C414.861 262.899 415.392 267.83 415.485 272.688C415.608 281.039 413.612 288.222 409.555 294.034C405.482 299.871 399.323 304.343 391.249 307.323C388.12 308.504 384.865 309.317 381.548 309.746C381.192 309.755 380.835 309.759 380.477 309.759ZM288.374 184.828L288.372 184.832C284.098 188.571 280.525 193.043 277.822 198.038C272.587 208.029 270.649 219.421 272.286 230.581C273.002 235.883 274.486 241.053 276.69 245.928C279.058 251.21 282.282 256.064 286.232 260.295C290.07 264.349 294.57 267.721 299.54 270.265C300.753 270.879 302.02 271.472 303.306 272.036C307.028 273.678 310.883 275.001 314.828 275.991C319.185 276.984 323.639 277.485 328.107 277.485C329.085 277.485 330.099 277.459 331.206 277.406C336.678 277.076 342.073 275.951 347.221 274.067C349.088 273.392 350.735 272.727 352.256 272.036C355.554 270.577 358.734 268.867 361.769 266.92C364.182 265.377 366.533 263.719 368.757 261.993C369.915 261.103 371.033 260.21 372.08 259.336C374.272 257.456 376.299 255.393 378.139 253.169C378.458 252.797 378.785 252.407 379.111 252.008L377.921 250.608C376.648 251.338 375.337 252.106 374.112 252.828C373.473 253.204 372.843 253.588 372.218 253.974L372.16 254.011L372.109 254.055L371.949 254.192C371.456 254.568 370.983 254.97 370.534 255.397L370.461 255.454C368.151 257.336 365.953 258.997 363.742 260.534C362.375 261.483 360.949 262.418 359.505 263.313C355.179 265.984 350.563 268.156 345.747 269.787C345.268 269.946 344.753 270.114 344.085 270.324C339.834 271.668 335.422 272.434 330.966 272.602C330.25 272.627 329.662 272.639 329.116 272.639C324.716 272.638 320.333 272.102 316.062 271.043C315.15 270.808 314.331 270.568 313.559 270.308C309.582 269.051 305.723 267.444 302.029 265.505C297.668 263.173 293.735 260.116 290.398 256.466C287.083 252.787 284.372 248.607 282.365 244.079C280.386 239.609 279.078 234.872 278.483 230.02L278.479 229.963C278.476 229.888 278.465 229.814 278.448 229.742C277.164 219.946 279.026 209.996 283.766 201.327C286.152 197.109 289.267 193.348 292.967 190.218C296.821 187.097 301.024 184.435 305.492 182.285C314.263 177.826 324.133 175.989 333.921 176.994C338.629 177.543 343.182 179.02 347.316 181.34C351.382 183.627 354.893 186.784 357.598 190.586C360.403 194.491 362.605 198.796 364.129 203.356C365.541 207.747 365.985 212.391 365.43 216.969C365.289 218.092 365.076 219.205 364.791 220.3C364.674 220.837 364.519 221.365 364.327 221.88L363.776 223.536L363.689 223.734C363.573 224.002 363.457 224.268 363.34 224.53L363.237 224.764C362.968 225.376 362.69 226.01 362.375 226.618L362.332 226.691L362.31 226.729L361.497 228.187C361.245 228.681 360.953 229.154 360.626 229.603L360.605 229.638C359.309 231.602 357.845 233.449 356.229 235.159C354.682 236.876 352.955 238.42 351.077 239.767C349.735 240.717 348.331 241.577 346.876 242.343C341.09 245.447 334.627 247.074 328.061 247.08C326.927 247.08 325.801 247.035 324.718 246.942C323.872 246.842 323.12 246.727 322.417 246.594C318.975 246.001 315.736 244.56 312.992 242.399C309.898 239.917 307.895 236.325 307.412 232.388C307.218 230.972 307.165 229.54 307.252 228.113H351.13L351.152 227.206C351.188 225.871 351.203 225.058 351.21 224.499V224.164C351.695 215.668 348.889 207.311 343.374 200.83C339.513 196.616 334.367 193.797 328.738 192.812C326.906 192.479 325.048 192.312 323.187 192.312L323.035 192.32C322.715 192.304 322.396 192.298 322.077 192.298C318.337 192.303 314.637 193.075 311.207 194.564C307.776 196.054 304.687 198.231 302.13 200.961C296.787 206.688 294.083 214.802 294.09 225.073C294.09 225.793 294.09 226.474 294.134 227.178C294.028 234.986 296.84 242.552 302.021 248.395L302.05 248.426C306.909 253.443 313.509 256.405 320.488 256.699C321.6 256.899 322.73 257.029 323.702 257.133C324.89 257.224 326.13 257.271 327.389 257.271C332.056 257.27 336.697 256.59 341.168 255.254C346.782 253.618 352.066 251.014 356.784 247.56C357.974 246.675 359.115 245.726 360.201 244.716C360.988 244.009 361.666 243.283 362.349 242.538C362.632 242.229 362.93 241.908 363.227 241.595C365.183 239.445 366.948 237.129 368.503 234.673C368.92 234.05 369.301 233.403 369.642 232.736L370.651 230.842C371.103 229.952 371.477 229.041 371.84 228.159L371.906 227.998C371.962 227.874 372.013 227.748 372.064 227.624L372.109 227.512C372.218 227.252 372.319 227.028 372.42 226.805L372.443 226.75L372.457 226.691L373.089 224.617C373.334 223.901 373.535 223.172 373.691 222.432C374.041 220.982 374.293 219.511 374.446 218.029C375.067 212.13 374.396 206.168 372.479 200.555C370.58 195.17 367.879 190.101 364.468 185.521C360.964 180.798 356.463 176.903 351.284 174.114C346.176 171.364 340.572 169.654 334.798 169.085C333.138 168.935 331.411 168.86 329.668 168.86C320.099 168.872 310.676 171.208 302.209 175.667C299.745 176.912 297.358 178.304 295.062 179.838C292.731 181.359 290.499 183.026 288.379 184.829L288.374 184.828ZM338.564 217.869H307.065C307.391 213.763 309.144 209.902 312.021 206.954C313.429 205.547 315.101 204.431 316.942 203.672C318.782 202.912 320.755 202.524 322.746 202.529C322.862 202.529 322.978 202.529 323.101 202.535H323.145C323.253 202.529 323.369 202.529 323.485 202.529C326.344 202.528 329.143 203.357 331.54 204.915C332.83 205.777 333.984 206.826 334.965 208.028C337.048 210.911 338.294 214.314 338.563 217.86L338.564 217.869Z" fill="url(#paint3_linear_34_58)"/>
<path d="M200.436 331.234C199.249 331.234 198.066 331.087 196.915 330.797C168.803 323.321 139.927 315.683 108.637 307.447C100.77 305.372 92.7913 303.241 85.0754 301.18C69.4856 297.014 53.3653 292.706 37.4403 288.69C30.3818 287.188 23.8769 283.762 18.6466 278.79C13.5594 273.466 9.96319 266.897 8.21947 259.743C7.946 257.93 7.56351 256.134 7.07407 254.366V238.512C8.08883 238.638 9.10503 238.761 10.1227 238.881C11.8432 239.088 13.6081 239.299 15.3389 239.527C15.6619 239.627 15.9981 239.678 16.3363 239.678C17.1401 239.677 17.9177 239.392 18.5317 238.873C18.9664 238.506 19.301 238.034 19.504 237.502C19.707 236.971 19.7719 236.396 19.6926 235.833C19.7071 233.325 19.7022 230.776 19.6975 228.31C19.6951 227.056 19.6934 225.803 19.6926 224.551C19.7605 222.873 19.2432 221.224 18.2293 219.885C17.2153 218.547 15.7678 217.603 14.1343 217.214C11.8199 216.631 9.45162 216.288 7.06695 216.191V177.401C7.95014 177.519 8.82993 177.651 9.70817 177.782L9.75429 177.789C11.6693 178.075 13.6493 178.371 15.6144 178.525C15.8047 178.54 15.9881 178.548 16.1648 178.548C18.4918 178.548 19.6787 177.225 19.6938 174.614C19.7192 171.315 19.7192 167.73 19.6938 163.331C19.7421 161.752 19.2613 160.203 18.3278 158.929C17.3944 157.655 16.0618 156.729 14.542 156.3C12.0974 155.64 9.59276 155.227 7.06571 155.066V116.573C9.83679 116.669 12.5957 116.987 15.316 117.524C15.5854 117.588 15.8616 117.621 16.1388 117.621C16.6515 117.622 17.1585 117.512 17.6253 117.3C18.092 117.088 18.5076 116.778 18.8439 116.391C19.1802 116.003 19.4293 115.549 19.5743 115.057C19.7193 114.565 19.7568 114.048 19.6842 113.54C19.6988 111.069 19.6938 108.551 19.6892 106.117C19.6867 104.877 19.6851 103.636 19.6842 102.394C19.7708 100.719 19.2561 99.0685 18.233 97.7393C17.21 96.4102 15.7457 95.4903 14.1043 95.1453C12.523 94.7698 10.8895 94.5283 9.30976 94.2949C8.55658 94.1838 7.80589 94.0717 7.05859 93.9479V59.2784C7.17797 59.1934 7.27041 59.076 7.32491 58.94C7.37941 58.804 7.39367 58.6552 7.36599 58.5113C7.36296 58.4112 7.36699 58.3111 7.37807 58.2116C7.71719 54.3615 8.61161 50.5807 10.0335 46.9868C11.4686 42.8478 13.9093 39.1301 17.1364 36.1677C20.3635 33.2053 24.276 31.0909 28.5223 30.0145C29.5228 29.9038 30.5053 29.6673 31.4465 29.3105H37.6127C37.6873 29.5622 37.8638 29.5839 38.0508 29.6068C38.1006 29.613 38.1514 29.6192 38.2006 29.6297C40.4936 30.0182 42.8441 30.2201 45.1154 30.4151C45.8704 30.4801 46.6254 30.5448 47.3795 30.6163C50.9104 30.9385 54.4413 31.2659 57.972 31.5985C60.3259 31.8185 62.6797 32.0378 65.0335 32.2564C67.0413 32.4421 69.0505 32.6257 71.061 32.8071L71.1802 32.8179C73.7502 33.0509 76.3212 33.287 78.893 33.5262L80.426 33.6695L80.7294 33.698C86.0991 34.1989 91.4713 34.7028 96.846 35.2096L103.848 35.8424L110.85 36.4736L128.802 38.1353C130.81 38.3196 132.819 38.5011 134.828 38.6799C137.488 38.9184 140.148 39.1602 142.806 39.4052C144.946 39.6058 147.086 39.8089 149.226 40.0144L149.291 40.0206C152.952 40.3701 156.738 40.7326 160.46 41.0666C163.61 41.3554 166.813 41.6303 169.911 41.8963L169.981 41.9024C172.744 42.1396 175.509 42.381 178.274 42.6268L181.803 42.9364C186.818 43.3735 192 43.8258 197.102 44.3329C200.368 44.4991 203.615 44.931 206.811 45.6244C212.071 47.2312 216.492 50.8368 219.124 55.667C223.743 63.3879 226.074 72.2617 225.845 81.2557C225.89 150.108 225.895 217.911 225.86 282.78C225.855 284.393 225.855 286.008 225.86 287.625C225.864 290.998 225.868 294.467 225.809 297.88C225.79 302.933 224.911 307.946 223.212 312.704C221.859 317.048 219.424 320.977 216.135 324.12C212.846 327.264 208.811 329.519 204.411 330.673C203.119 331.045 201.781 331.234 200.436 331.234ZM136.624 268.523L136.626 268.53L138.612 276.316L138.636 276.392C139.477 279.073 140.892 281.538 142.782 283.616C144.673 285.695 146.993 287.336 149.583 288.427C157.039 291.853 167.096 292.288 176.822 292.708C185.478 293.085 194.428 293.475 201.406 295.973C209.26 298.782 213.589 303.79 215.033 311.733L215.73 311.683C215.739 311.514 215.743 311.342 215.746 311.172L215.751 310.914C215.81 303.066 211.552 297.07 203.097 293.093C197.248 290.342 189.476 288.573 179.333 287.687C178.687 287.6 178.033 287.513 177.359 287.425C166.084 285.967 150.641 283.97 147.166 273.022L147.145 272.974L147.137 272.927C146.962 272.362 146.819 271.788 146.709 271.208V271.14L145.687 266.353C146.292 266.156 146.967 265.92 147.755 265.628L147.988 265.548C149.346 265.02 150.686 264.424 151.971 263.778L152.196 263.662C152.768 263.378 153.363 263.06 154.068 262.66C161.327 258.703 167.293 252.737 171.25 245.478C171.588 244.952 171.921 244.373 172.331 243.606C175.273 238.092 177.52 232.235 179.022 226.169C181.886 214.052 183.33 201.643 183.325 189.192C183.318 187.548 183.294 186.048 183.253 184.606C183.253 183.894 183.253 183.177 183.26 182.465C183.267 181.377 183.275 180.26 183.275 179.142C183.275 178.025 183.267 176.893 183.253 175.783C183.128 162.594 181.237 149.482 177.629 136.796C172.48 117.062 161.934 99.1545 147.174 85.081C139.91 78.382 132.122 73.2556 124.027 69.8432C115.586 66.2931 106.518 64.4769 97.3608 64.5026C94.5389 64.5065 91.7194 64.664 88.9146 64.9744C80.5963 65.6526 72.5903 68.4502 65.66 73.1004C58.7296 77.7507 53.106 84.0987 49.3252 91.5392C45.9066 97.8305 43.3577 104.671 41.5322 112.451C40.0246 118.859 39.0076 125.845 38.3322 134.437C37.9037 140.313 37.6864 146.272 37.6864 152.149C37.6864 154.831 37.7304 157.539 37.8171 160.197C38.009 172.921 39.7884 185.572 43.114 197.856C47.832 216.334 57.5652 233.149 71.2387 246.443C85.9424 261.011 105.803 269.183 126.501 269.184C127.455 269.184 128.182 269.172 128.86 269.147C131.457 269.121 134.049 268.913 136.617 268.524L136.624 268.523ZM126.139 258.336C106.451 258.336 89.0307 250.187 74.3591 234.115C62.4708 220.571 54.5444 204.014 51.4503 186.26C49.7966 177.701 48.8548 169.02 48.6348 160.305C48.529 157.643 48.4751 154.888 48.4751 152.12C48.4677 145.11 48.8023 138.094 49.4691 131.266C50.241 119.454 53.32 107.907 58.532 97.2785C61.4565 91.3203 65.8627 86.2134 71.328 82.4474C76.7934 78.6814 83.1346 76.3826 89.7436 75.7714C92.1704 75.4746 94.6129 75.3244 97.0577 75.3216C111.503 75.3226 125.461 80.5464 136.357 90.0297C149.841 101.485 159.833 116.501 165.193 133.363C169.794 147.01 172.254 161.288 172.485 175.688C172.575 178.298 172.622 180.978 172.63 183.881C172.63 189.917 172.415 195.972 171.992 201.876L172.347 201.897L171.991 201.89C171.443 212.71 169.145 223.37 165.185 233.454L165.105 233.657C164.77 234.465 164.407 235.277 163.995 236.139C163.873 236.404 163.745 236.654 163.609 236.918L163.567 237.011L163.436 237.265C162.357 239.388 161.109 241.421 159.705 243.344L159.393 243.78C159.138 244.125 158.887 244.461 158.617 244.788L158.573 244.854L158.533 244.909L158.487 244.962L158.458 245.006C158.437 245.035 158.415 245.063 158.39 245.089L158.356 245.129L158.203 245.296L158.174 245.325C157.031 246.628 155.815 247.866 154.532 249.033C154.148 249.388 153.917 249.584 153.908 249.59L153.864 249.627C151.306 252.022 148.3 253.889 145.019 255.119L144.967 255.134C144.477 255.344 143.959 255.55 143.43 255.743L141.398 246.173C141.266 245.55 141.013 244.96 140.653 244.436C140.292 243.912 139.832 243.465 139.298 243.119C138.764 242.773 138.167 242.537 137.542 242.422C136.916 242.308 136.274 242.318 135.652 242.452C134.404 242.72 133.313 243.471 132.617 244.541C131.922 245.611 131.677 246.913 131.937 248.162L132.257 249.751L133.28 254.627L133.976 257.929C131.372 258.196 128.757 258.332 126.139 258.336ZM104.247 98.9629C102.234 98.9349 100.28 99.6506 98.7616 100.973L98.7254 101.002L98.6891 101.046C95.4619 104.629 93.6742 108.921 93.5228 113.461C93.2219 117.2 93.0659 121.04 93.0585 124.875C93.0585 128.77 93.2049 132.611 93.4937 136.289C93.6243 141.743 95.8996 147.083 99.9017 151.323L99.9308 151.353C101.56 152.866 103.708 153.696 105.931 153.674C106.189 153.674 106.464 153.663 106.773 153.638C109.325 153.406 111.62 152.115 112.912 150.184C115.138 147.5 116.427 144.162 116.583 140.677C116.66 138.882 116.67 137.084 116.67 135.562C116.67 134.241 116.663 132.921 116.648 131.622C116.634 130.33 116.627 129.002 116.627 127.69C116.793 125.709 116.874 123.694 116.866 121.697C116.857 118.36 116.612 115.029 116.133 111.727C115.51 107.295 112.979 103.276 109.008 100.407C107.601 99.4608 105.943 98.9577 104.247 98.9629ZM105.916 148.551C105.543 148.558 105.173 148.487 104.829 148.342C104.485 148.197 104.176 147.982 103.92 147.71C100.933 144.374 99.2461 140.233 99.1749 136.049V135.983C98.8811 132.345 98.7322 128.609 98.7322 124.882C98.7322 121.149 98.8811 117.411 99.1749 113.772V113.729C99.3128 110.401 100.548 107.212 102.687 104.659C103.083 104.309 103.586 104.103 104.114 104.074C104.642 104.045 105.164 104.195 105.597 104.499C108.401 106.579 110.153 109.452 110.531 112.59L110.538 112.648C110.972 115.013 111.19 117.412 111.191 119.817C111.191 120.928 111.145 122.027 111.054 123.082L111.046 123.155L111.032 123.619C110.991 124.71 110.945 125.942 110.945 127.16V131.601L110.952 132.232C110.966 133.429 110.974 134.633 110.974 135.845C110.974 137.602 110.945 139.123 110.887 140.497C110.771 142.954 109.85 145.304 108.267 147.187L108.202 147.267L108.158 147.346C107.956 147.692 107.671 147.981 107.329 148.189C106.987 148.397 106.599 148.516 106.199 148.536C106.105 148.543 106.01 148.551 105.916 148.551Z" fill="url(#paint4_linear_34_58)"/>
<path d="M1399.59 45.1765V50.5909H1410.51L1405.11 45.1765C1402.14 42.1986 1399.69 39.7621 1399.66 39.7621C1399.61 39.7621 1399.59 42.1986 1399.59 45.1765Z" fill="#0069B4"/>
<path d="M1399.59 61.9118H1420.5L1415.18 56.2759H1407.39L1399.59 56.2513V61.9118Z" fill="#0069B4"/>
<path d="M1399.59 72.9868H1430.34L1429.78 72.2977C1429.44 71.9286 1428.31 70.7226 1427.23 69.5905L1425.24 67.5724H1399.59V72.9868Z" fill="#0069B4"/>
<path d="M1399.59 84.3078H1440.7L1435.3 78.8934H1399.59V84.3078Z" fill="#0069B4"/>
<path d="M1399.59 95.6289H1450.76L1445.36 90.2145H1399.59V95.6289Z" fill="#0069B4"/>
<path d="M1364 106.95H1456.29C1548.4 106.95 1548.57 106.95 1548.57 106.458C1548.57 105.965 1548.4 105.965 1504.32 105.965H1460.09L1455.67 101.535H1364V106.95Z" fill="#0069B4"/>
<path d="M1919.44 105.153C1909.25 106.113 1901.77 108.451 1894.45 112.93C1884.46 119.034 1876.71 129.001 1872.58 140.987C1869.61 149.625 1868.53 156.467 1868.53 166.631C1868.53 179.749 1870.67 189.79 1875.5 199.487C1881.15 210.759 1890.16 218.954 1902.18 223.704C1904.88 224.762 1910.04 226.14 1913.3 226.657C1922.33 228.134 1935.81 227.691 1944.91 225.673C1947.64 225.058 1956.25 222.375 1956.97 221.907C1957.41 221.612 1956.16 215.164 1954.63 209.897C1953.41 205.64 1950.68 198.379 1949.99 197.567C1949.97 197.543 1948.13 198.059 1945.92 198.724C1936.57 201.53 1929.77 202.317 1923 201.333C1907.02 199.044 1899.26 187.698 1899.24 166.631C1899.24 153.218 1902.11 144.063 1908.29 137.886C1916.32 129.838 1928.94 128.484 1945.38 133.874L1948.67 134.957L1949.14 133.997C1950.63 131.069 1953.23 123.981 1954.17 120.264C1954.81 117.656 1955.52 113.201 1955.52 111.675V110.691L1953.55 109.928C1944.5 106.458 1935.39 104.932 1924.62 105.03C1922.24 105.03 1919.9 105.104 1919.44 105.153Z" fill="#0069B4"/>
<path d="M2014.23 105.252C2000.36 106.482 1987.74 112.635 1979.3 122.282C1975.18 126.983 1971.1 133.997 1968.77 140.421C1963.08 156.049 1962.98 176.328 1968.53 192.473C1974.93 211.079 1989.49 223.31 2009.27 226.657C2017.66 228.085 2031.6 227.691 2040.34 225.796C2044.22 224.959 2052.59 222.326 2053.13 221.784C2053.5 221.415 2051.36 211.989 2049.87 207.338C2048.91 204.36 2046.43 198.01 2046.11 197.69C2046.01 197.592 2044.32 197.986 2042.38 198.576C2034.23 201.111 2029.76 201.825 2023.38 201.628C2007.45 201.087 1998.94 193.433 1995.94 176.968C1995.48 174.359 1995.4 173.178 1995.4 166.508C1995.4 159.74 1995.45 158.682 1995.97 155.827C1997 150.093 1998.74 145.269 2001.1 141.725C2002.35 139.805 2005.37 136.68 2007.21 135.351C2015.01 129.764 2026.87 129.149 2040.61 133.628C2042.87 134.391 2044.74 134.957 2044.74 134.932C2048.93 125.605 2050.97 118.788 2051.39 112.906L2051.56 110.715L2049.62 109.952C2044.69 108.057 2038.84 106.531 2034.01 105.842C2028 105.006 2019.68 104.759 2014.23 105.252Z" fill="#0069B4"/>
<path d="M2081.31 106.113C2080.64 106.187 2078.29 106.433 2076.1 106.704C2073.92 106.974 2072.05 107.196 2071.98 107.196C2071.91 107.196 2071.86 133.776 2071.86 166.238V225.279L2073.4 225.55C2082.07 227.026 2090.61 227.026 2099.27 225.55L2100.82 225.279L2100.87 201.111L2100.94 176.968H2130.15L2130.22 201.136C2130.25 214.45 2130.32 225.328 2130.37 225.328C2130.42 225.328 2131.87 225.55 2133.61 225.82C2142 227.076 2149.22 227.002 2157.71 225.55L2159.23 225.279V107.245L2157.34 106.974C2152.31 106.261 2150.08 106.113 2144.63 106.113C2140.02 106.113 2137.86 106.236 2134.64 106.655C2132.38 106.95 2130.47 107.196 2130.4 107.196C2130.32 107.196 2130.27 117.04 2130.27 129.1V151.003H2100.82V107.245L2099.67 107.073C2094.39 106.285 2085.09 105.793 2081.31 106.113Z" fill="#0069B4"/>
<path d="M2473.89 106.212C2472.62 106.335 2470.16 106.63 2468.44 106.851L2465.3 107.27V225.279L2466.85 225.55C2475.51 227.051 2484.3 227.051 2492.99 225.55L2494.51 225.279V166.238C2494.51 133.776 2494.44 107.196 2494.34 107.196C2494.21 107.196 2492.42 106.974 2490.34 106.704C2485.97 106.138 2477.45 105.892 2473.89 106.212Z" fill="#0069B4"/>
<path d="M1764.93 106.433C1763.85 106.556 1761.84 106.778 1760.44 106.95L1757.91 107.245L1758.01 145.81C1758.08 187.501 1758.03 185.902 1759.43 194.072C1762.57 212.654 1772.59 223.335 1789.82 226.436C1794.29 227.248 1797.92 227.543 1803.22 227.543C1825.36 227.543 1838.29 220.135 1844.45 203.892C1845.44 201.357 1846.64 196.632 1847.15 193.334C1848.38 185.508 1848.33 187.181 1848.43 145.934L1848.53 107.27L1846.25 106.974C1837.97 105.941 1830.17 105.941 1821.82 106.974L1819.57 107.245L1819.47 143.965C1819.39 168.329 1819.27 181.57 1819.1 183.367C1817.92 194.909 1815.34 199.315 1808.69 201.136C1806.46 201.751 1799.93 201.726 1797.7 201.111C1792.96 199.807 1790.26 196.78 1788.74 191.045C1787.09 184.942 1786.9 179.749 1786.9 139.855C1786.9 113.89 1786.82 107.196 1786.6 107.196C1786.43 107.171 1785.01 106.999 1783.46 106.802C1780.25 106.384 1768.02 106.138 1764.93 106.433Z" fill="#0069B4"/>
<path d="M1659.66 107.368C1659.59 107.614 1659.34 108.87 1659.1 110.149C1658.46 113.595 1658.51 126.392 1659.17 129.961L1659.64 132.422L1679.84 132.496C1691.03 132.521 1700.01 132.644 1700.01 132.767C1700.01 132.89 1689.8 152.874 1677.31 177.189L1654.6 221.391L1656.08 223.606L1657.57 225.82H1737.02L1737.29 224.639C1738.79 217.576 1738.79 208.47 1737.29 201.406L1737.02 200.225L1717.19 200.176L1697.34 200.102L1742.52 111.626L1741.25 109.288L1739.99 106.95H1699.89C1661.92 106.95 1659.78 106.974 1659.66 107.368Z" fill="#0069B4"/>
<path d="M2183.04 225.82H2218.24C2251.57 225.82 2253.46 225.796 2253.58 225.378C2254.22 223.286 2254.96 216.419 2254.96 212.801C2254.96 209.257 2254.2 202.686 2253.58 200.668C2253.46 200.25 2252.21 200.225 2232.79 200.176L2212.13 200.102V176.722L2228.01 176.648C2242.86 176.599 2243.89 176.574 2244.01 176.156C2244.65 174.113 2245.39 167.542 2245.39 163.85C2245.39 160.306 2244.65 153.563 2244.01 151.446C2243.89 151.028 2242.86 151.003 2228.01 150.954L2212.13 150.88V132.668L2232.3 132.594L2252.5 132.545L2252.63 131.979C2253.63 127.795 2254 118.222 2253.39 112.856C2253.14 110.888 2252.85 108.771 2252.72 108.107L2252.45 106.95H2183.04V225.82Z" fill="#0069B4"/>
<path d="M2267.5 108.23C2265.95 115.81 2265.95 123.365 2267.5 131.241L2267.74 132.545H2295.21V178.937C2295.21 204.458 2295.26 225.328 2295.31 225.328C2295.36 225.328 2296.88 225.55 2298.7 225.82C2307.26 227.076 2314.38 227.002 2322.87 225.55L2324.42 225.279L2324.54 132.668L2352.03 132.422L2352.45 129.592C2353.16 124.842 2353.4 119.969 2353.13 116.179C2352.89 113.029 2352.28 107.984 2352.03 107.245C2351.96 107.024 2343.29 106.95 2309.84 106.95H2267.74L2267.5 108.23Z" fill="#0069B4"/>
<path d="M2362.95 110.322C2361.9 116.647 2361.99 124.178 2363.25 130.995L2363.52 132.545L2377.29 132.594L2391.06 132.668L2391.18 225.279L2392.72 225.55C2400.11 226.83 2407.94 227.026 2414.86 226.091C2417.17 225.796 2419.28 225.476 2419.58 225.402L2420.14 225.279L2420.26 132.668L2434.03 132.594L2447.83 132.545L2448.1 130.921C2449.23 124.424 2449.35 116.77 2448.37 110.395C2448.1 108.574 2447.88 107.048 2447.88 106.999C2447.88 106.974 2428.9 106.95 2405.71 106.95H2363.54L2362.95 110.322Z" fill="#0069B4"/>
<path d="M1543.86 112.733L1539.25 118.148L1543.84 118.222C1546.34 118.246 1548.45 118.246 1548.5 118.197C1548.55 118.148 1548.55 115.662 1548.52 112.709L1548.45 107.319L1543.86 112.733Z" fill="#0069B4"/>
<path d="M1364 118.271L1426.22 118.246L1428.18 115.884C1429.26 114.579 1430.25 113.373 1430.34 113.201C1430.52 112.906 1425.34 112.856 1397.26 112.856H1364V118.271Z" fill="#0069B4"/>
<path d="M1364 129.592L1416.65 129.567L1418.93 126.885L1421.19 124.177H1364V129.592Z" fill="#0069B4"/>
<path d="M1529.65 129.592H1548.57V124.177H1534.17L1529.65 129.592Z" fill="#0069B4"/>
<path d="M1364 140.913H1470.72L1472.66 138.624C1473.71 137.394 1474.72 136.163 1474.92 135.917C1475.23 135.523 1472.56 135.498 1419.62 135.498H1364V140.913Z" fill="#0069B4"/>
<path d="M1522.56 138.009C1521.4 139.387 1520.45 140.593 1520.4 140.716C1520.35 140.814 1526.66 140.913 1534.44 140.913H1548.57V135.498H1536.62L1524.64 135.523L1522.56 138.009Z" fill="#0069B4"/>
<path d="M1364 152.234L1461.32 152.209L1463.28 149.847C1464.36 148.542 1465.39 147.287 1465.56 147.016C1465.88 146.598 1464.44 146.573 1414.95 146.573H1364V152.234Z" fill="#0069B4"/>
<path d="M1513.35 148.961C1512.27 150.265 1511.24 151.52 1511.07 151.791C1510.75 152.209 1511.31 152.234 1529.65 152.234H1548.57V146.573L1531.96 146.598H1515.32L1513.35 148.961Z" fill="#0069B4"/>
<path d="M1364 163.555H1451.75L1454.03 160.872C1455.26 159.371 1456.29 158.116 1456.29 158.042C1456.29 157.968 1435.52 157.894 1410.14 157.894H1364V163.555Z" fill="#0069B4"/>
<path d="M1503.88 160.282C1502.77 161.611 1501.69 162.89 1501.5 163.112C1501.15 163.53 1502.28 163.555 1524.84 163.555H1548.57V157.894H1505.92L1503.88 160.282Z" fill="#0069B4"/>
<path d="M1364 174.876H1442.25L1444.6 172.046L1446.98 169.215H1364V174.876Z" fill="#0069B4"/>
<path d="M1491.61 174.876H1584.41V169.215H1496.37L1491.61 174.876Z" fill="#0069B4"/>
<path d="M1399.59 185.951H1432.95L1434.84 183.662C1435.89 182.431 1436.9 181.201 1437.09 180.955C1437.44 180.561 1436.53 180.536 1418.54 180.536H1399.59V185.951Z" fill="#0069B4"/>
<path d="M1484.76 183.047C1483.6 184.425 1482.57 185.68 1482.48 185.877C1482.3 186.148 1490.87 186.197 1533.36 186.197H1584.41V180.536H1486.82L1484.76 183.047Z" fill="#0069B4"/>
<path d="M1399.59 197.518H1423.27L1425.36 195.008C1426.51 193.654 1427.55 192.374 1427.64 192.202C1427.82 191.907 1425.53 191.857 1413.7 191.857H1399.59V197.518Z" fill="#0069B4"/>
<path d="M1475.43 194.122C1474.42 195.328 1473.39 196.607 1473.15 196.927L1472.68 197.518H1584.41V191.857L1477.27 191.882L1475.43 194.122Z" fill="#0069B4"/>
<path d="M1399.59 208.839H1413.73L1418.49 203.178H1399.59V208.839Z" fill="#0069B4"/>
<path d="M1531.51 205.541C1530.43 206.845 1529.4 208.101 1529.21 208.371C1528.89 208.839 1529.26 208.839 1556.65 208.839H1584.41V203.178L1533.48 203.203L1531.51 205.541Z" fill="#0069B4"/>
<path d="M1399.59 220.086C1399.59 223.163 1399.69 225.574 1399.79 225.427C1399.91 225.304 1401.8 223.039 1404.01 220.406C1406.22 217.773 1408.23 215.361 1408.5 215.041L1408.99 214.499H1399.59V220.086Z" fill="#0069B4"/>
<path d="M1521.62 217.207L1519.37 219.914H1584.41V214.499L1523.91 214.524L1521.62 217.207Z" fill="#0069B4"/>
<path d="M1399.59 227.051H1492.34L1494.23 229.143L1496.15 231.235H1584.41V225.82H1399.59V227.051Z" fill="#0069B4"/>
<path d="M1503.17 239.849L1505.69 242.556H1548.57V237.142H1500.66L1503.17 239.849Z" fill="#0069B4"/>
<path d="M1513.01 251.17L1515.51 253.877H1548.57V248.463H1510.48L1513.01 251.17Z" fill="#0069B4"/>
<path d="M1521.21 260.817C1521.75 261.408 1522.9 262.614 1523.78 263.524L1525.35 265.198H1548.57V259.784H1520.25L1521.21 260.817Z" fill="#0069B4"/>
<path d="M1534.95 276.519H1548.57V271.105H1529.9L1534.95 276.519Z" fill="#0069B4"/>
<path d="M1540.38 283.213C1541.58 284.517 1548.4 291.852 1548.5 291.999C1548.55 292.048 1548.57 289.883 1548.57 287.151V282.179H1539.39L1540.38 283.213Z" fill="#0069B4"/>
<path d="M556.865 124.562L572.865 145.25H552.115L543.99 134.812C537.282 138.479 529.803 140.312 521.553 140.312C507.761 140.312 496.303 135.562 487.178 126.062C478.053 116.521 473.49 105.167 473.49 92C473.49 83.2083 475.615 75.1458 479.865 67.8125C484.115 60.4375 489.949 54.5833 497.365 50.25C504.824 45.9167 512.824 43.75 521.365 43.75C534.407 43.75 545.594 48.4583 554.928 57.875C564.303 67.2917 568.99 78.7708 568.99 92.3125C568.99 104.771 564.949 115.521 556.865 124.562ZM545.928 110.438C549.636 104.938 551.49 98.8542 551.49 92.1875C551.49 83.4792 548.553 76.0833 542.678 70C536.803 63.9167 529.699 60.875 521.365 60.875C512.782 60.875 505.594 63.8333 499.803 69.75C494.011 75.6667 491.115 83.1875 491.115 92.3125C491.115 102.479 494.761 110.521 502.053 116.438C507.761 121.062 514.24 123.375 521.49 123.375C525.657 123.375 529.574 122.562 533.24 120.938L516.803 99.75H537.678L545.928 110.438Z" fill="white"/>
<path d="M584.833 70H602.083V102.75C602.083 109.125 602.52 113.562 603.395 116.062C604.27 118.521 605.666 120.438 607.583 121.812C609.541 123.188 611.937 123.875 614.77 123.875C617.604 123.875 619.999 123.208 621.958 121.875C623.958 120.5 625.437 118.5 626.395 115.875C627.104 113.917 627.458 109.729 627.458 103.312V70H644.583V98.8125C644.583 110.688 643.645 118.812 641.77 123.188C639.479 128.521 636.104 132.625 631.645 135.5C627.187 138.333 621.52 139.75 614.645 139.75C607.187 139.75 601.145 138.083 596.52 134.75C591.937 131.417 588.708 126.771 586.833 120.812C585.499 116.688 584.833 109.188 584.833 98.3125V70Z" fill="white"/>
<path d="M713.3 70H730.3V138H713.3V130.812C709.967 133.979 706.613 136.271 703.238 137.688C699.904 139.062 696.279 139.75 692.363 139.75C683.571 139.75 675.967 136.354 669.55 129.562C663.134 122.729 659.925 114.25 659.925 104.125C659.925 93.625 663.029 85.0208 669.238 78.3125C675.446 71.6042 682.988 68.25 691.863 68.25C695.946 68.25 699.779 69.0208 703.363 70.5625C706.946 72.1042 710.259 74.4167 713.3 77.5V70ZM695.363 84C690.071 84 685.675 85.875 682.175 89.625C678.675 93.3333 676.925 98.1042 676.925 103.938C676.925 109.812 678.696 114.646 682.238 118.438C685.821 122.229 690.217 124.125 695.425 124.125C700.8 124.125 705.259 122.271 708.8 118.562C712.342 114.812 714.113 109.917 714.113 103.875C714.113 97.9583 712.342 93.1667 708.8 89.5C705.259 85.8333 700.779 84 695.363 84Z" fill="white"/>
<path d="M799.08 43.75H816.08V138H799.08V130.812C795.747 133.979 792.393 136.271 789.018 137.688C785.684 139.062 782.059 139.75 778.143 139.75C769.351 139.75 761.747 136.354 755.33 129.562C748.914 122.729 745.705 114.25 745.705 104.125C745.705 93.625 748.809 85.0208 755.018 78.3125C761.226 71.6042 768.768 68.25 777.643 68.25C781.726 68.25 785.559 69.0208 789.143 70.5625C792.726 72.1042 796.039 74.4167 799.08 77.5V43.75ZM781.143 84C775.851 84 771.455 85.875 767.955 89.625C764.455 93.3333 762.705 98.1042 762.705 103.938C762.705 109.812 764.476 114.646 768.018 118.438C771.601 122.229 775.997 124.125 781.205 124.125C786.58 124.125 791.039 122.271 794.58 118.562C798.122 114.812 799.893 109.917 799.893 103.875C799.893 97.9583 798.122 93.1667 794.58 89.5C791.039 85.8333 786.559 84 781.143 84Z" fill="white"/>
<path d="M902.735 108.938H847.923C848.714 113.771 850.819 117.625 854.235 120.5C857.694 123.333 862.089 124.75 867.423 124.75C873.798 124.75 879.277 122.521 883.86 118.062L898.235 124.812C894.652 129.896 890.36 133.667 885.36 136.125C880.36 138.542 874.423 139.75 867.548 139.75C856.881 139.75 848.194 136.396 841.485 129.688C834.777 122.938 831.423 114.5 831.423 104.375C831.423 94 834.756 85.3958 841.423 78.5625C848.131 71.6875 856.527 68.25 866.61 68.25C877.319 68.25 886.027 71.6875 892.735 78.5625C899.444 85.3958 902.798 94.4375 902.798 105.688L902.735 108.938ZM885.61 95.5C884.485 91.7083 882.256 88.625 878.923 86.25C875.631 83.875 871.798 82.6875 867.423 82.6875C862.673 82.6875 858.506 84.0208 854.923 86.6875C852.673 88.3542 850.589 91.2917 848.673 95.5H885.61Z" fill="white"/>
<path d="M913.89 70H928.515V78.5625C930.099 75.1875 932.203 72.625 934.828 70.875C937.453 69.125 940.328 68.25 943.453 68.25C945.661 68.25 947.974 68.8333 950.39 70L945.078 84.6875C943.078 83.6875 941.432 83.1875 940.14 83.1875C937.515 83.1875 935.286 84.8125 933.453 88.0625C931.661 91.3125 930.765 97.6875 930.765 107.188L930.828 110.5V138H913.89V70Z" fill="white"/>
<path d="M960.17 70H977.17V76.9375C981.045 73.6875 984.545 71.4375 987.67 70.1875C990.837 68.8958 994.066 68.25 997.358 68.25C1004.11 68.25 1009.84 70.6042 1014.55 75.3125C1018.5 79.3125 1020.48 85.2292 1020.48 93.0625V138H1003.61V108.188C1003.61 100.062 1003.23 94.6667 1002.48 92C1001.77 89.3333 1000.5 87.3125 998.67 85.9375C996.879 84.5208 994.649 83.8125 991.983 83.8125C988.524 83.8125 985.545 84.9792 983.045 87.3125C980.587 89.6042 978.879 92.7917 977.92 96.875C977.42 99 977.17 103.604 977.17 110.688V138H960.17V70Z" fill="white"/>
<path d="M1070.26 68.25C1076.68 68.25 1082.7 69.8542 1088.33 73.0625C1093.99 76.2708 1098.41 80.625 1101.58 86.125C1104.74 91.625 1106.33 97.5625 1106.33 103.938C1106.33 110.354 1104.72 116.354 1101.51 121.938C1098.35 127.521 1094.01 131.896 1088.51 135.062C1083.01 138.188 1076.95 139.75 1070.33 139.75C1060.58 139.75 1052.24 136.292 1045.33 129.375C1038.45 122.417 1035.01 113.979 1035.01 104.062C1035.01 93.4375 1038.91 84.5833 1046.7 77.5C1053.53 71.3333 1061.39 68.25 1070.26 68.25ZM1070.51 84.3125C1065.22 84.3125 1060.8 86.1667 1057.26 89.875C1053.76 93.5417 1052.01 98.25 1052.01 104C1052.01 109.917 1053.74 114.708 1057.2 118.375C1060.7 122.042 1065.12 123.875 1070.45 123.875C1075.78 123.875 1080.22 122.021 1083.76 118.312C1087.3 114.604 1089.08 109.833 1089.08 104C1089.08 98.1667 1087.33 93.4375 1083.83 89.8125C1080.37 86.1458 1075.93 84.3125 1070.51 84.3125Z" fill="white"/>
<path d="M478.053 203.062H528.24V220.188H495.428V236.812H528.24V253.625H495.428V277.812H528.24V295H478.053V203.062Z" fill="white"/>
<path d="M542.208 200.75H559.27V295H542.208V200.75Z" fill="white"/>
<path d="M644.175 265.938H589.363C590.154 270.771 592.259 274.625 595.675 277.5C599.134 280.333 603.529 281.75 608.863 281.75C615.238 281.75 620.717 279.521 625.3 275.062L639.675 281.812C636.092 286.896 631.8 290.667 626.8 293.125C621.8 295.542 615.863 296.75 608.988 296.75C598.321 296.75 589.634 293.396 582.925 286.688C576.217 279.938 572.863 271.5 572.863 261.375C572.863 251 576.196 242.396 582.863 235.562C589.571 228.688 597.967 225.25 608.05 225.25C618.759 225.25 627.467 228.688 634.175 235.562C640.884 242.396 644.238 251.438 644.238 262.688L644.175 265.938ZM627.05 252.5C625.925 248.708 623.696 245.625 620.363 243.25C617.071 240.875 613.238 239.688 608.863 239.688C604.113 239.688 599.946 241.021 596.363 243.688C594.113 245.354 592.029 248.292 590.113 252.5H627.05Z" fill="white"/>
<path d="M661.393 201.938H678.393V227H688.518V241.688H678.393V295H661.393V241.688H652.643V227H661.393V201.938Z" fill="white"/>
<path d="M701.048 201.938H718.048V227H728.173V241.688H718.048V295H701.048V241.688H692.298V227H701.048V201.938Z" fill="white"/>
<path d="M734.64 227H749.265V235.562C750.849 232.188 752.953 229.625 755.578 227.875C758.203 226.125 761.078 225.25 764.203 225.25C766.411 225.25 768.724 225.833 771.14 227L765.828 241.688C763.828 240.688 762.182 240.188 760.89 240.188C758.265 240.188 756.036 241.812 754.203 245.062C752.411 248.312 751.515 254.688 751.515 264.188L751.578 267.5V295H734.64V227Z" fill="white"/>
<path d="M812.858 225.25C819.274 225.25 825.295 226.854 830.92 230.062C836.587 233.271 841.004 237.625 844.17 243.125C847.337 248.625 848.92 254.562 848.92 260.938C848.92 267.354 847.316 273.354 844.108 278.938C840.941 284.521 836.608 288.896 831.108 292.062C825.608 295.188 819.545 296.75 812.92 296.75C803.17 296.75 794.837 293.292 787.92 286.375C781.045 279.417 777.608 270.979 777.608 261.062C777.608 250.438 781.504 241.583 789.295 234.5C796.129 228.333 803.983 225.25 812.858 225.25ZM813.108 241.312C807.816 241.312 803.399 243.167 799.858 246.875C796.358 250.542 794.608 255.25 794.608 261C794.608 266.917 796.337 271.708 799.795 275.375C803.295 279.042 807.712 280.875 813.045 280.875C818.379 280.875 822.816 279.021 826.358 275.312C829.899 271.604 831.67 266.833 831.67 261C831.67 255.167 829.92 250.438 826.42 246.812C822.962 243.146 818.524 241.312 813.108 241.312Z" fill="white"/>
<path d="M864.2 227H881.2V233.938C885.075 230.688 888.575 228.438 891.7 227.188C894.867 225.896 898.096 225.25 901.388 225.25C908.138 225.25 913.867 227.604 918.575 232.312C922.534 236.312 924.513 242.229 924.513 250.062V295H907.638V265.188C907.638 257.062 907.263 251.667 906.513 249C905.804 246.333 904.534 244.312 902.7 242.938C900.909 241.521 898.679 240.812 896.013 240.812C892.554 240.812 889.575 241.979 887.075 244.312C884.617 246.604 882.909 249.792 881.95 253.875C881.45 256 881.2 260.604 881.2 267.688V295H864.2V227Z" fill="white"/>
<path d="M949.043 199C952.043 199 954.605 200.083 956.73 202.25C958.897 204.417 959.98 207.042 959.98 210.125C959.98 213.167 958.918 215.771 956.793 217.938C954.668 220.062 952.126 221.125 949.168 221.125C946.126 221.125 943.522 220.042 941.355 217.875C939.23 215.667 938.168 213 938.168 209.875C938.168 206.875 939.23 204.312 941.355 202.188C943.48 200.062 946.043 199 949.043 199ZM940.48 227H957.605V295H940.48V227Z" fill="white"/>
<path d="M1040.95 240.75L1026.76 248.562C1024.09 245.771 1021.45 243.833 1018.82 242.75C1016.24 241.667 1013.2 241.125 1009.7 241.125C1003.32 241.125 998.156 243.042 994.198 246.875C990.281 250.667 988.323 255.542 988.323 261.5C988.323 267.292 990.219 272.021 994.01 275.688C997.802 279.354 1002.78 281.188 1008.95 281.188C1016.57 281.188 1022.51 278.583 1026.76 273.375L1040.2 282.562C1032.91 292.021 1022.61 296.75 1009.32 296.75C997.364 296.75 987.989 293.208 981.198 286.125C974.448 279.042 971.073 270.75 971.073 261.25C971.073 254.667 972.719 248.604 976.01 243.062C979.302 237.521 983.885 233.167 989.76 230C995.677 226.833 1002.28 225.25 1009.57 225.25C1016.32 225.25 1022.39 226.604 1027.76 229.312C1033.14 231.979 1037.53 235.792 1040.95 240.75Z" fill="white"/>
<path d="M1089.6 225.25C1096.02 225.25 1102.04 226.854 1107.67 230.062C1113.33 233.271 1117.75 237.625 1120.92 243.125C1124.08 248.625 1125.67 254.562 1125.67 260.938C1125.67 267.354 1124.06 273.354 1120.85 278.938C1117.69 284.521 1113.35 288.896 1107.85 292.062C1102.35 295.188 1096.29 296.75 1089.67 296.75C1079.92 296.75 1071.58 293.292 1064.67 286.375C1057.79 279.417 1054.35 270.979 1054.35 261.062C1054.35 250.438 1058.25 241.583 1066.04 234.5C1072.87 228.333 1080.73 225.25 1089.6 225.25ZM1089.85 241.312C1084.56 241.312 1080.14 243.167 1076.6 246.875C1073.1 250.542 1071.35 255.25 1071.35 261C1071.35 266.917 1073.08 271.708 1076.54 275.375C1080.04 279.042 1084.46 280.875 1089.79 280.875C1095.12 280.875 1099.56 279.021 1103.1 275.312C1106.64 271.604 1108.42 266.833 1108.42 261C1108.42 255.167 1106.67 250.438 1103.17 246.812C1099.71 243.146 1095.27 241.312 1089.85 241.312Z" fill="white"/>
<path d="M1242 0H1252V338H1242V0Z" fill="white"/>
</g>
<defs>
<linearGradient id="paint0_linear_34_58" x1="13.0778" y1="99.0187" x2="-9.7461" y2="110.171" gradientUnits="userSpaceOnUse">
<stop stop-color="#F146DA"/>
<stop offset="1" stop-color="#CE25E6"/>
</linearGradient>
<linearGradient id="paint1_linear_34_58" x1="13.0738" y1="160.056" x2="-9.73655" y2="171.241" gradientUnits="userSpaceOnUse">
<stop stop-color="#F146DA"/>
<stop offset="1" stop-color="#CE25E6"/>
</linearGradient>
<linearGradient id="paint2_linear_34_58" x1="13.0769" y1="221.066" x2="-9.71877" y2="232.251" gradientUnits="userSpaceOnUse">
<stop stop-color="#F146DA"/>
<stop offset="1" stop-color="#CE25E6"/>
</linearGradient>
<linearGradient id="paint3_linear_34_58" x1="355.103" y1="74.9617" x2="109.893" y2="240.335" gradientUnits="userSpaceOnUse">
<stop stop-color="#FB4DE3"/>
<stop offset="1" stop-color="#CE25E6"/>
</linearGradient>
<linearGradient id="paint4_linear_34_58" x1="181.68" y1="41.6895" x2="-237.48" y2="272.896" gradientUnits="userSpaceOnUse">
<stop stop-color="#1E9DFF"/>
<stop offset="0.427" stop-color="#1A6BE5"/>
<stop offset="1" stop-color="#1C57CE"/>
</linearGradient>
<clipPath id="clip0_34_58">
<rect width="2495" height="338" fill="white"/>
</clipPath>
</defs>
</svg>
